<svg height="512pt" viewBox="-61 0 512 512" width="512pt" xmlns="http://www.w3.org/2000/svg"><path d="m380.367188 180.097656c-27.902344 10.503906-75.300782 55.800782-184.800782 60.902344 0 0-.296875 0-.601562 0-.300782 0-.597656 0-.597656 0-109.800782-5.097656-156.300782-50.097656-184.800782-60.902344-7.199218-2.699218-11.101562-10.496094-9-17.996094 1.5-5.703124 6.300782-9.902343 12-10.800781 21-3 109.800782-33.601562 163.199219 5.097657 8.101563 5.699218 14.101563 12.902343 19.199219 20.699218 5.101562-7.796875 11.101562-15 19.199218-20.699218 52.800782-38.101563 138.601563-8.699219 163.203126-5.097657 5.699218.898438 10.496093 5.097657 11.996093 10.800781 2.101563 7.5-1.796875 15.296876-8.996093 17.996094zm0 0" fill="#90e36a"/><path d="m380.367188 180.097656c-27.902344 10.503906-75.300782 55.800782-184.800782 60.902344 0 0-.296875 0-.601562 0v-63.898438c5.101562-7.800781 11.101562-15 19.203125-20.703124 52.796875-38.097657 138.597656-8.699219 163.199219-5.097657 5.699218.898438 10.5 5.097657 12 10.800781 2.097656 7.5-1.800782 15.296876-9 17.996094zm0 0" fill="#70da40"/><path d="m380.367188 301.097656c-27.902344 10.503906-75.300782 55.800782-184.800782 60.902344 0 0-.296875 0-.601562 0-.300782 0-.597656 0-.597656 0-109.800782-5.097656-156.300782-50.097656-184.800782-60.902344-7.199218-2.699218-11.101562-10.496094-9-17.996094 1.5-5.703124 6.300782-9.902343 12-10.800781 21-3 109.800782-33.601562 163.199219 5.097657 8.101563 5.699218 14.101563 12.902343 19.199219 20.699218 5.101562-7.796875 11.101562-15 19.199218-20.699218 52.800782-38.101563 138.601563-8.699219 163.203126-5.097657 5.699218.898438 10.496093 5.097657 11.996093 10.800781 2.101563 7.5-1.796875 15.296876-8.996093 17.996094zm0 0" fill="#90e36a"/><path d="m380.367188 301.097656c-27.902344 10.503906-75.300782 55.800782-184.800782 60.902344 0 0-.296875 0-.601562 0v-63.898438c5.101562-7.800781 11.101562-15 19.203125-20.703124 52.796875-38.097657 138.597656-8.699219 163.199219-5.097657 5.699218.898438 10.5 5.097657 12 10.800781 2.097656 7.5-1.800782 15.296876-9 17.996094zm0 0" fill="#70da40"/><path d="m380.367188 421.097656c-27.902344 10.503906-75.300782 55.800782-184.800782 60.902344 0 0-.296875 0-.601562 0-.300782 0-.597656 0-.597656 0-109.800782-5.097656-156.300782-50.097656-184.800782-60.902344-7.199218-2.699218-11.101562-10.496094-9-17.996094 1.5-5.703124 6.300782-9.902343 12-10.800781 21-3 109.800782-33.601562 163.199219 5.097657 8.101563 5.699218 14.101563 12.902343 19.199219 20.699218 5.101562-7.796875 11.101562-15 19.199218-20.699218 52.800782-38.101563 138.601563-8.699219 163.203126-5.097657 5.699218.898438 10.496093 5.097657 11.996093 10.800781 2.101563 7.5-1.796875 15.296876-8.996093 17.996094zm0 0" fill="#90e36a"/><path d="m380.367188 421.097656c-27.902344 10.503906-75.300782 55.800782-184.800782 60.902344 0 0-.296875 0-.601562 0v-63.898438c5.101562-7.800781 11.101562-15 19.203125-20.703124 52.796875-38.097657 138.597656-8.699219 163.199219-5.097657 5.699218.898438 10.5 5.097657 12 10.800781 2.097656 7.5-1.800782 15.296876-9 17.996094zm0 0" fill="#70da40"/><path d="m380.367188 59.097656c-27.902344 10.503906-75.300782 56.804688-184.800782 61.902344 0 0-.296875 0-.601562 0-.300782 0-.597656 0-.597656 0-109.800782-5.097656-156.300782-51.097656-184.800782-61.902344-7.199218-2.699218-11.101562-10.496094-9-17.996094 1.5-5.703124 6.300782-9.902343 12-10.800781 21-3 109.800782-33.601562 163.199219 5.097657 8.101563 5.699218 14.101563 12.902343 19.199219 20.699218 5.101562-7.796875 11.101562-15 19.199218-20.699218 52.800782-38.101563 138.601563-8.699219 163.203126-5.097657 5.699218.898438 10.496093 5.097657 11.996093 10.800781 2.101563 7.5-1.796875 15.296876-8.996093 17.996094zm0 0" fill="#90e36a"/><path d="m380.367188 59.097656c-27.902344 10.503906-75.300782 56.804688-184.800782 61.902344 0 0-.296875 0-.601562 0v-64.898438c5.101562-7.800781 11.101562-15 19.203125-20.703124 52.796875-38.097657 138.597656-8.699219 163.199219-5.097657 5.699218.898438 10.5 5.097657 12 10.800781 2.097656 7.5-1.800782 15.296876-9 17.996094zm0 0" fill="#70da40"/><path d="m209.964844 15v482c0 8.402344-6.597656 15-15 15-8.398438 0-15-6.597656-15-15v-482c0-8.402344 6.601562-15 15-15 8.402344 0 15 6.597656 15 15zm0 0" fill="#70da40"/><path d="m209.964844 15v482c0 8.402344-6.597656 15-15 15v-512c8.402344 0 15 6.597656 15 15zm0 0" fill="#56c225"/></svg>