<svg height="512pt" viewBox="0 0 512 512" width="512pt" xmlns="http://www.w3.org/2000/svg"><path d="m405.53125 256.847656-104.53125 55.574219v63.578125c0 8.289062 6.710938 15 15 15 42.230469 0 78.882812-29.609375 89.09375-70.578125l11.351562-45.398437c2.019532-8.027344-2.871093-16.171876-10.914062-18.175782zm0 0" fill="#3e322e"/><path d="m196 297.421875-89.53125-40.574219c-8.042969 2.003906-12.933594 10.148438-10.914062 18.175782l11.339843 45.398437c10.222657 40.96875 46.875 70.578125 89.105469 70.578125 8.289062 0 15-6.710938 15-15v-63.578125c0-8.289063-6.710938-15-15-15zm0 0" fill="#53433f"/><path d="m451 467c0 24.898438-20.097656 45-45 45h-270c-8.402344 0-15-6.601562-15-15 0-8.402344 6.597656-15 15-15h270c8.402344 0 15-6.601562 15-15 0-8.402344-6.597656-15-15-15h-90c-24.601562 0-46.199219-11.699219-60-30-9.300781-12.300781-15-29.199219-15-46v-54.101562c0-8.398438 6.597656-15 15-15s15 6.601562 15 15v54.101562c0 24.898438 20.097656 46 45 46h90c24.902344 0 45 20.097656 45 45zm0 0" fill="#725d57"/><path d="m451 467c0 24.898438-20.097656 45-45 45h-150v-30h150c8.402344 0 15-6.601562 15-15 0-8.402344-6.597656-15-15-15h-90c-24.601562 0-46.199219-11.699219-60-30v-115.101562c8.402344 0 15 6.601562 15 15v54.101562c0 24.898438 20.097656 46 45 46h90c24.902344 0 45 20.097656 45 45zm0 0" fill="#68544f"/><path d="m512 105c0 79.800781-45.398438 151.5-116.5 187.199219l-45 22.199219c-29.398438 15-62.097656 22.203124-94.5 22.203124s-65.097656-7.203124-94.5-22.203124l-45-22.199219c-71.101562-35.699219-116.5-107.398438-116.5-187.199219 0-8.402344 6.597656-15 15-15h66.097656c12.003906 0 23.402344-4.800781 31.800782-13.199219l21.300781-21.300781 64.199219-9.902344c18.300781 7.800782 37.800781 11.699219 57.601562 11.699219 19.796875 0 39.300781-3.898437 57.597656-11.699219l64.199219 9.902344 21.304687 21.300781c8.398438 8.398438 19.796876 13.199219 31.800782 13.199219h66.097656c8.402344 0 15 6.597656 15 15zm0 0" fill="#725d57"/><path d="m512 105c0 79.800781-45.398438 151.5-116.5 187.199219l-45 22.199219c-29.398438 15-62.097656 22.203124-94.5 22.203124v-279.300781c19.800781 0 39.300781-3.902343 57.597656-11.699219l64.203125 9.898438 21.300781 21.300781c8.398438 8.398438 19.796876 13.199219 31.800782 13.199219h66.097656c8.402344 0 15 6.597656 15 15zm0 0" fill="#68544f"/><path d="m166 90c-24.8125 0-45-20.1875-45-45s20.1875-45 45-45 45 20.1875 45 45-20.1875 45-45 45zm0 0" fill="#68544f"/><path d="m346 90c-24.8125 0-45-20.1875-45-45s20.1875-45 45-45 45 20.1875 45 45-20.1875 45-45 45zm0 0" fill="#53433f"/><path d="m271 165v90c0 8.398438-6.597656 15-15 15s-15-6.601562-15-15v-90c0-8.402344 6.597656-15 15-15s15 6.597656 15 15zm0 0" fill="#53433f"/><path d="m316 240c-8.289062 0-15-6.710938-15-15v-90c0-8.289062 6.710938-15 15-15s15 6.710938 15 15v90c0 8.289062-6.710938 15-15 15zm0 0" fill="#3e322e"/><path d="m196 240c-8.289062 0-15-6.710938-15-15v-90c0-8.289062 6.710938-15 15-15s15 6.710938 15 15v90c0 8.289062-6.710938 15-15 15zm0 0" fill="#53433f"/><path d="m256 270v-120c8.402344 0 15 6.597656 15 15v90c0 8.398438-6.597656 15-15 15zm0 0" fill="#3e322e"/></svg>