<svg height="512pt" viewBox="0 0 512 512" width="512pt" xmlns="http://www.w3.org/2000/svg"><path d="m421 15v341.800781c0 8.398438-6.597656 15-15 15l-300 49.199219c-8.402344 0-15-6.597656-15-15v-391c0-8.402344 6.597656-15 15-15h300c8.402344 0 15 6.597656 15 15zm0 0" fill="#73bcff"/><path d="m421 15v341.800781c0 8.398438-6.597656 15-15 15l-150 24.597657v-396.398438h150c8.402344 0 15 6.597656 15 15zm0 0" fill="#3aaaff"/><path d="m446.902344 399.402344c-16.5-57.601563-70.601563-98.402344-130.902344-98.402344-21 0-41.398438 4.800781-60 14.097656-10.5 5.402344-20.699219 12.300782-29.699219 20.402344-49.199219-15-103.199219 10.199219-124.800781 55.5-55.800781 2.402344-101.5 49.601562-101.5 106 0 8.402344 6.597656 15 15 15h482c8.402344 0 15-6.597656 15-15 0-42.898438-25.800781-81.699219-65.097656-97.597656zm0 0" fill="#a8ebfa"/><path d="m512 497c0 8.402344-6.597656 15-15 15h-241v-196.902344c18.601562-9.296875 39-14.097656 60-14.097656 60.300781 0 114.402344 40.800781 130.902344 98.402344 39.296875 15.898437 65.097656 54.699218 65.097656 97.597656zm0 0" fill="#76e2f8"/><path d="m286 211c-8.289062 0-15-6.710938-15-15v-91c0-8.289062 6.710938-15 15-15s15 6.710938 15 15v91c0 8.289062-6.710938 15-15 15zm0 0" fill="#0095ff"/><path d="m301 256c0 8.285156-6.714844 15-15 15s-15-6.714844-15-15 6.714844-15 15-15 15 6.714844 15 15zm0 0" fill="#0095ff"/><g fill="#3aaaff"><path d="m226 151c-8.289062 0-15-6.710938-15-15v-61c0-8.289062 6.710938-15 15-15s15 6.710938 15 15v61c0 8.289062-6.710938 15-15 15zm0 0"/><path d="m241 196c0 8.285156-6.714844 15-15 15s-15-6.714844-15-15 6.714844-15 15-15 15 6.714844 15 15zm0 0"/><path d="m166 241c-8.289062 0-15-6.710938-15-15v-60c0-8.289062 6.710938-15 15-15s15 6.710938 15 15v60c0 8.289062-6.710938 15-15 15zm0 0"/><path d="m181 286c0 8.285156-6.714844 15-15 15s-15-6.714844-15-15 6.714844-15 15-15 15 6.714844 15 15zm0 0"/></g><path d="m346 151c-8.289062 0-15-6.710938-15-15v-61c0-8.289062 6.710938-15 15-15s15 6.710938 15 15v61c0 8.289062-6.710938 15-15 15zm0 0" fill="#0095ff"/><path d="m361 196c0 8.285156-6.714844 15-15 15s-15-6.714844-15-15 6.714844-15 15-15 15 6.714844 15 15zm0 0" fill="#0095ff"/><path d="m512 376c0 8.285156-6.714844 15-15 15s-15-6.714844-15-15 6.714844-15 15-15 15 6.714844 15 15zm0 0" fill="#73bcff"/><path d="m30 376c0 8.285156-6.714844 15-15 15s-15-6.714844-15-15 6.714844-15 15-15 15 6.714844 15 15zm0 0" fill="#9ed0ff"/><path d="m482 316c0 8.285156-6.714844 15-15 15s-15-6.714844-15-15 6.714844-15 15-15 15 6.714844 15 15zm0 0" fill="#73bcff"/><path d="m61 316c0 8.285156-7.714844 15-16 15s-15-6.714844-15-15 6.714844-15 15-15 16 6.714844 16 15zm0 0" fill="#9ed0ff"/><path d="m361 406c0 8.285156-6.714844 15-15 15s-15-6.714844-15-15 6.714844-15 15-15 15 6.714844 15 15zm0 0" fill="#3aaaff"/><path d="m271 436c0 8.402344-6.597656 15-15 15s-15-6.597656-15-15 6.597656-15 15-15 15 6.597656 15 15zm0 0" fill="#73bcff"/><path d="m211 406c0 8.285156-6.714844 15-15 15s-15-6.714844-15-15 6.714844-15 15-15 15 6.714844 15 15zm0 0" fill="#73bcff"/><path d="m271 436c0 8.402344-6.597656 15-15 15v-30c8.402344 0 15 6.597656 15 15zm0 0" fill="#3aaaff"/></svg>