<svg height="512pt" viewBox="0 0 512 512.00069" width="512pt" xmlns="http://www.w3.org/2000/svg"><path d="m177.613281 428.582031-21-63.597656c-.898437-2.097656-2.097656-4.199219-3.597656-6-1.800781-1.5-3.902344-2.699219-6-3.597656l-63.59375-21c-5.402344-1.796875-11.402344-.601563-15.300781 3.601562l-63.59375 63.59375c-8.101563 7.800781-4.800782 21.300781 5.699218 24.898438l56.695313 18.597656 18.597656 56.695313c3.601563 10.5 17.097657 13.800781 24.898438 5.703124l63.597656-63.597656c4.195313-3.898437 5.398437-9.898437 3.597656-15.296875zm0 0" fill="#ff6c6c"/><path d="m177.613281 428.582031c1.800781 5.398438.601563 11.398438-3.601562 15.296875l-63.59375 63.59375c-7.800781 8.101563-21.300781 4.800782-24.898438-5.699218l-18.597656-56.695313 86.09375-86.09375c1.496094 1.800781 2.699219 3.902344 3.597656 6zm0 0" fill="#ff6c6c"/><path d="m404.566406 442.507812c-3 2.699219-6.597656 4.199219-10.5 4.199219-3.898437 0-7.796875-1.5-10.5-4.199219l-314.070312-314.074218c-5.699219-5.699219-5.699219-15.300782 0-21 6-6 15.597656-6 21.296875 0l313.773437 313.773437c6 5.699219 6 15.296875 0 21.300781zm0 0" fill="#ede9e8"/><path d="m404.566406 442.507812c-3 2.699219-6.597656 4.199219-10.5 4.199219-3.898437 0-7.796875-1.5-10.5-4.199219l-156.882812-156.890624 20.996094-21.296876 156.886718 156.886719c6 5.699219 6 15.296875 0 21.300781zm0 0" fill="#dfd7d5"/><path d="m177.613281 428.582031c1.800781 5.398438.601563 11.398438-3.601562 15.296875l-63.59375 63.59375c-7.800781 8.101563-21.300781 4.800782-24.898438-5.699218l-18.597656-56.695313 86.09375-86.09375c1.496094 1.800781 2.699219 3.902344 3.597656 6zm0 0" fill="#ff4949"/><path d="m443.863281 89.132812-397.039062 397.34375c-5.699219 5.699219-15.300781 5.699219-21.300781 0-5.699219-6-5.699219-15.601562 0-21.300781l397.34375-397.039062c5.695312-6 15.296874-6 20.996093 0 6 5.699219 6 15.300781 0 20.996093zm0 0" fill="#b35f49"/><path d="m426.265625 486.503906c5.699219 5.699219 5.699219 15.296875 0 21.296875-3 2.699219-6.898437 4.199219-10.800781 4.199219-3.597656 0-7.5-1.5-10.496094-4.199219l-6.101562-7.699219c-24.898438-24.597656-29.097657-62.996093-10.199219-92.691406 41.398437-65.996094 20.398437-151.191406-56.09375-227.984375-76.792969-76.792969-161.988281-97.492187-227.984375-56.09375-29.695313 18.898438-68.09375 14.699219-92.691406-10.199219l-7.625-7.527343c-5.699219-6-5.699219-15.296875 0-21.296875 6-5.699219 15.601562-5.699219 21.300781 0l7.324219 7.523437c15 15 37.796874 17.402344 55.796874 6.300781 78.59375-49.796874 177.882813-27.296874 265.175782 59.996094 87.292968 87.292969 109.792968 186.285156 59.996094 265.179688-11.101563 17.996094-8.699219 40.792968 6.300781 55.792968zm0 0" fill="#68544f"/><path d="m443.863281 89.132812-397.039062 397.34375c-5.699219 5.699219-15.300781 5.699219-21.300781 0l418.339843-418.339843c6 5.699219 6 15.300781 0 20.996093zm0 0" fill="#99503d"/><path d="m426.265625 486.503906c5.699219 5.699219 5.699219 15.296875 0 21.296875-3 2.699219-6.898437 4.199219-10.800781 4.199219-3.597656 0-7.5-1.5-10.496094-4.199219l-6.101562-7.699219c-24.898438-24.597656-29.097657-62.996093-10.199219-92.691406 41.398437-65.996094 20.398437-151.191406-56.09375-227.984375l21.296875-21.296875c87.292968 87.292969 109.792968 186.285156 59.996094 265.179688-11.101563 17.996094-8.699219 40.792968 6.296874 55.792968zm0 0" fill="#53433f"/><path d="m507.457031 4.542969c-3.898437-4.199219-9.898437-5.699219-15.296875-3.601563l-127.191406 42.296875c-5.996094 2.101563-10.199219 7.800781-10.199219 14.097657 0 6.601562 4.203125 12.300781 10.199219 14.402343l56.394531 18.898438 18.898438 56.394531c2.101562 5.996094 7.800781 10.195312 14.402343 10.195312 6.296876 0 11.996094-4.199218 14.097657-10.195312l42.292969-127.191406c1.804687-5.398438.605468-11.398438-3.597657-15.296875zm0 0" fill="#ede9e8"/><path d="m511.058594 19.839844-42.296875 127.191406c-2.101563 6-7.800781 10.199219-14.097657 10.199219-6.601562 0-12.300781-4.199219-14.398437-10.199219l-18.898437-56.394531 86.089843-86.09375c4.203125 3.898437 5.402344 9.898437 3.601563 15.296875zm0 0" fill="#dfd7d5"/></svg>