<svg height="512pt" viewBox="1 0 511 512" width="512pt" xmlns="http://www.w3.org/2000/svg"><path d="m256.5 60c-24.816406 0-45-20.1875-45-45 0-8.289062 6.707031-15 15-15 8.289062 0 15 6.710938 15 15 0 8.277344 6.722656 15 15 15 8.273438 0 15-6.722656 15-15 0-8.289062 6.707031-15 15-15 8.289062 0 15 6.710938 15 15 0 24.8125-20.1875 45-45 45zm0 0" fill="#68544f"/><path d="m316.5 91v21c0 8.398438-6.601562 15-15 15h-90c-8.402344 0-15-6.601562-15-15v-21c0-33 27-61 60-61s60 28 60 61zm0 0" fill="#68544f"/><path d="m316.5 91v21c0 8.398438-6.601562 15-15 15h-45v-97c33 0 60 28 60 61zm0 0" fill="#3e322e"/><g fill="#68544f"><path d="m46.5 512c-3.839844 0-7.675781-1.464844-10.605469-4.394531-5.859375-5.859375-5.859375-15.351563 0-21.210938l25.605469-26.605469v-23.789062c0-3.984375 1.582031-7.792969 4.394531-10.605469l28.929688-28.929687c5.859375-5.859375 15.351562-5.859375 21.210937 0s5.859375 15.351562 0 21.210937l-24.535156 24.535157v23.789062c0 3.984375-1.582031 8.792969-4.394531 11.605469l-30 30c-2.929688 2.929687-6.769531 4.394531-10.605469 4.394531zm0 0"/><path d="m117.542969 192.046875c-3.835938 0-7.675781-1.46875-10.605469-4.398437l-41.042969-41.042969c-2.8125-2.8125-4.394531-6.621094-4.394531-10.605469v-23.789062l-25.605469-25.605469c-5.859375-5.859375-5.859375-15.351563 0-21.210938s15.351563-5.859375 21.210938 0l30 30c2.8125 2.8125 4.394531 6.621094 4.394531 10.605469v23.789062l36.648438 36.648438c5.859374 5.859375 5.859374 15.351562 0 21.210938-2.929688 2.929687-6.765626 4.398437-10.605469 4.398437zm0 0"/><path d="m4.894531 326.605469c-5.859375-5.859375-5.859375-15.351563 0-21.210938l30-30c2.8125-2.8125 7.621094-4.394531 11.605469-4.394531h30.527344c8.289062 0 15 6.710938 15 15s-6.710938 15-15 15h-24.316406l-26.605469 25.605469c-5.859375 5.859375-15.351563 5.859375-21.210938 0zm0 0"/></g><path d="m455.894531 507.605469-30-30c-2.8125-2.8125-4.394531-7.621094-4.394531-11.605469v-23.789062l-24.535156-24.535157c-5.859375-5.859375-5.859375-15.351562 0-21.210937 5.855468-5.859375 15.351562-5.859375 21.210937 0l28.929688 28.929687c2.8125 2.8125 4.394531 6.621094 4.394531 10.605469v23.789062l25.605469 26.605469c5.859375 5.859375 5.859375 15.351563 0 21.210938s-15.351563 5.859375-21.210938 0zm0 0" fill="#3e322e"/><path d="m395.453125 192.046875c-3.835937 0-7.675781-1.46875-10.605469-4.398437-5.855468-5.859376-5.855468-15.351563 0-21.210938l36.652344-36.648438v-23.789062c0-3.984375 1.582031-7.792969 4.394531-10.605469l30-30c5.859375-5.859375 15.351563-5.859375 21.210938 0s5.859375 15.351563 0 21.210938l-25.605469 25.605469v23.789062c0 3.984375-1.582031 7.792969-4.394531 10.605469l-41.046875 41.042969c-2.929688 2.929687-6.765625 4.398437-10.605469 4.398437zm0 0" fill="#3e322e"/><path d="m486.894531 326.605469-26.605469-25.605469h-24.316406c-8.292968 0-15-6.710938-15-15s6.707032-15 15-15h30.527344c3.984375 0 8.792969 1.582031 11.605469 4.394531l30 30c5.859375 5.859375 5.859375 15.351563 0 21.210938s-15.351563 5.859375-21.210938 0zm0 0" fill="#3e322e"/><path d="m451.5 301c0 115.800781-87.601562 211-195 211-107.402344 0-195-95.199219-195-211 0-28.5 5.398438-55.800781 15-80.699219l70.800781-93.300781c31.199219-22.800781 68.699219-36 109.199219-36s78 13.199219 109.199219 36l70.800781 93.300781c9.597656 24.898438 15 52.199219 15 80.699219zm0 0" fill="#ff6c6c"/><path d="m451.5 301c0 115.800781-87.601562 211-195 211v-421c40.5 0 78 13.199219 109.199219 36l70.800781 93.300781c9.597656 24.898438 15 52.199219 15 80.699219zm0 0" fill="#ff193d"/><path d="m121.5 241c33.089844 0 60-26.910156 60-60 0-23.800781-14.03125-44.226562-34.160156-53.917969-31.285156 22.84375-56.074219 55.226563-70.820313 93.214844 11.007813 12.582031 26.984375 20.703125 44.980469 20.703125zm0 0" fill="#725d57"/><path d="m331.5 181c0 33.089844 26.910156 60 60 60 17.996094 0 33.972656-8.121094 44.976562-20.703125-14.742187-37.992187-39.535156-70.371094-70.816406-93.214844-20.132812 9.691407-34.160156 30.117188-34.160156 53.917969zm0 0" fill="#53433f"/><path d="m346.5 406c-25.238281 0-45-26.351562-45-60s19.761719-60 45-60 45 26.351562 45 60-19.761719 60-45 60zm0 0" fill="#53433f"/><path d="m166.5 406c-25.238281 0-45-26.351562-45-60s19.761719-60 45-60 45 26.351562 45 60-19.761719 60-45 60zm0 0" fill="#725d57"/><path d="m256.5 196c-33.601562 0-60 19.800781-60 45s26.398438 45 60 45c33.597656 0 60-19.800781 60-45s-26.402344-45-60-45zm0 0" fill="#725d57"/><path d="m316.5 241c0 25.199219-26.402344 45-60 45v-90c33.597656 0 60 19.800781 60 45zm0 0" fill="#53433f"/></svg>