<svg height="512pt" viewBox="0 0 512 512" width="512pt" xmlns="http://www.w3.org/2000/svg"><path d="m242 495.5h-151l30-332c.902344-8.101562 8.101562-14.402344 16.5-13.5h57c8.398438-.902344 16.597656 5.398438 17.5 13.5zm0 0" fill="#fed2a4"/><path d="m242 495.5h-76v-345.5h28.5c8.398438-.902344 16.597656 5.398438 17.5 13.5zm0 0" fill="#ffbd86"/><path d="m326.902344 123.601562c-18.902344-72.601562-85.601563-123.601562-160.902344-123.601562s-142 51-160.902344 123.601562c-3.296875 13.5-.296875 27.898438 8.101563 39 8.699219 11.097657 21.601562 17.398438 35.699219 17.398438h234.203124c14.097657 0 27-6.300781 35.699219-17.402344 8.398438-11.097656 11.398438-25.496094 8.101563-38.996094zm0 0" fill="#ff8597"/><path d="m318.800781 162.597656c-8.699219 11.101563-21.601562 17.402344-35.699219 17.402344h-117.101562v-180c75.300781 0 142 51 160.902344 123.601562 3.296875 13.5.296875 27.898438-8.101563 38.996094zm0 0" fill="#ff4949"/><path d="m451.699219 494h-149.398438l30-152c1.5-8.101562 9.597657-13.5 17.699219-11.699219h54c8.398438-1.800781 16.199219 3.597657 17.699219 11.699219zm0 0" fill="#fed2a4"/><path d="m451.699219 494h-74.699219v-163.699219h27c8.398438-1.800781 16.199219 3.597657 17.699219 11.699219zm0 0" fill="#ffbd86"/><path d="m181 75c0 8.398438-6.597656 15-15 15s-15-6.601562-15-15c0-8.402344 6.597656-15 15-15s15 6.597656 15 15zm0 0" fill="#fed2a4"/><path d="m242 105c0 8.285156-6.714844 15-15 15s-15-6.714844-15-15 6.714844-15 15-15 15 6.714844 15 15zm0 0" fill="#ffbd86"/><path d="m121 105c0 8.285156-6.714844 15-15 15s-15-6.714844-15-15 6.714844-15 15-15 15 6.714844 15 15zm0 0" fill="#fed2a4"/><path d="m504.800781 301.800781c-18.601562-54.902343-69.902343-91.800781-127.800781-91.800781s-109.199219 36.898438-127.800781 91.5c-4.5 13.5-2.398438 27.898438 6 39.300781 8.398437 12 22.5 19.199219 36.898437 19.199219h169.800782c14.402343 0 28.5-7.199219 36.902343-19.199219 8.398438-11.402343 10.5-25.800781 6-39zm0 0" fill="#ff8597"/><path d="m498.800781 340.800781c-8.398437 12-22.5 19.199219-36.898437 19.199219h-84.902344v-150c57.898438 0 109.199219 36.898438 127.800781 91.800781 4.5 13.199219 2.398438 27.597657-6 39zm0 0" fill="#ff4949"/><path d="m422 285c0 8.285156-6.714844 15-15 15s-15-6.714844-15-15 6.714844-15 15-15 15 6.714844 15 15zm0 0" fill="#ffbd86"/><path d="m362 285c0 8.285156-6.714844 15-15 15s-15-6.714844-15-15 6.714844-15 15-15 15 6.714844 15 15zm0 0" fill="#fed2a4"/><path d="m181 75c0 8.398438-6.597656 15-15 15v-30c8.402344 0 15 6.597656 15 15zm0 0" fill="#ffbd86"/><path d="m512 497c0 8.289062-6.710938 15-15 15h-482c-8.289062 0-15-6.710938-15-15s6.710938-15 15-15h482c8.289062 0 15 6.710938 15 15zm0 0" fill="#99503d"/></svg>