<svg height="512.00005pt" viewBox="0 0 512.00005 512.00005" width="512.00005pt" xmlns="http://www.w3.org/2000/svg"><path d="m200.335938 332.875 114.253906 146.898438c18.183594 23.375 52.734375 25.527343 73.675781 4.585937 19.226563-19.226563 19.226563-50.398437 0-69.621094l-40.097656-82.527343-94.796875-52.367188zm0 0" fill="#d2c5c2"/><path d="m179.125 311.664062-146.898438-114.253906c-23.375-18.183594-25.527343-52.734375-4.585937-73.675781 19.226563-19.226563 50.398437-19.226563 69.621094 0l82.527343 40.097656 52.367188 94.796875zm0 0" fill="#dfd7d5"/><path d="m401.863281 173.777344c-17.605469 17.605468-46.03125 17.605468-63.640625 0-17.609375-17.609375-17.605468-46.035156 0-63.640625 5.941406-5.941407 15.273438-5.941407 21.214844 0 5.9375 5.941406 5.9375 15.273437 0 21.210937-5.941406 5.941406-5.941406 15.273438 0 21.214844 5.9375 5.941406 15.273438 5.9375 21.210938 0 5.941406-5.941406 15.273437-5.941406 21.214843 0 5.941407 5.941406 5.941407 15.273438 0 21.214844zm0 0" fill="#725d57"/><path d="m338.222656 173.777344 21.214844-21.214844c5.9375 5.941406 15.273438 5.941406 21.210938 0 5.941406-5.9375 15.273437-5.9375 21.214843 0 5.9375 5.941406 5.9375 15.273438 0 21.214844-17.605469 17.605468-46.03125 17.605468-63.640625 0zm0 0" fill="#68544f"/><path d="m359.4375 152.5625c-17.609375-17.605469-46.03125-17.605469-63.640625 0-17.605469 17.605469-17.605469 46.03125 0 63.640625 17.605469 17.605469 46.035156 17.605469 63.640625 0 17.605469-17.609375 17.605469-46.03125 0-63.640625zm0 0" fill="#73bcff"/><path d="m189.730469 343.484375-164.0625 164.0625c-5.9375 5.9375-15.273438 5.9375-21.214844 0-5.9375-5.941406-5.9375-15.277344 0-21.214844l164.066406-164.0625c5.9375-5.941406 15.269531-5.941406 21.210938 0 5.941406 5.941407 5.941406 15.273438 0 21.214844zm0 0" fill="#73bcff"/><path d="m232.15625 258.628906-161.152344-161.152344c-22.296875-22.296874-22.296875-58.449218 0-80.746093 27.289063-27.285157 73.226563-20.207031 91.027344 14.03125l101.945312 196.046875zm0 0" fill="#ede9e8"/><path d="m253.371094 279.84375 161.152344 161.152344c22.296874 22.296875 58.449218 22.296875 80.746093 0 27.285157-27.289063 20.207031-73.226563-14.03125-91.027344l-196.046875-101.945312zm0 0" fill="#dfd7d5"/><path d="m359.4375 216.203125c-17.605469 17.605469-46.03125 17.605469-63.640625 0l63.640625-63.640625c17.605469 17.609375 17.605469 46.03125 0 63.640625zm0 0" fill="#3aaaff"/><path d="m189.730469 343.484375-164.0625 164.0625c-5.9375 5.9375-15.273438 5.9375-21.214844 0l185.277344-185.277344c5.941406 5.941407 5.941406 15.273438 0 21.214844zm0 0" fill="#3aaaff"/><path d="m317.011719 194.988281c-17.609375-17.605469-46.03125-17.605469-63.640625 0l-84.851563 84.855469c-17.609375 17.605469-17.609375 46.03125 0 63.640625 17.605469 17.605469 46.03125 17.605469 63.636719 0l84.855469-84.855469c17.605469-17.605468 17.605469-46.03125 0-63.640625zm0 0" fill="#9ed0ff"/><path d="m317.011719 258.628906-84.855469 84.855469c-17.605469 17.605469-46.03125 17.605469-63.636719 0l148.488281-148.492187c17.609376 17.605468 17.609376 46.03125.003907 63.636718zm0 0" fill="#73bcff"/></svg>