<svg height="511pt" viewBox="0 0 511 511.99932" width="511pt" xmlns="http://www.w3.org/2000/svg"><path d="m.957031 445.730469c-2.023437-8.019531 2.855469-16.171875 10.898438-18.179688 22.640625-5.695312 26.445312-16.8125 30.894531-39.011719 8.183594-40.945312 22.496094-56.296874 64.804688-64.742187 29.25-5.863281 37.253906-13.304687 43.261718-43.238281 8.136719-40.703125 22.246094-56.261719 64.804688-64.757813 10.75-2.152343 20.039062-4.011719 27.128906-9.707031 6.445312-5.253906 15.894531-4.1875 21.078125 2.269531 5.199219 6.441407 4.1875 15.882813-2.269531 21.066407-12.804688 10.320312-27.292969 13.214843-40.0625 15.761718-29.253906 5.863282-35.261719 11.304688-41.265625 41.238282-8.1875 40.953124-24.484375 58.3125-66.789063 66.757812-29.585937 5.921875-35.324218 11.566406-41.277344 41.238281-6.65625 33.292969-18.355468 53.539063-53.015624 62.195313-8.082032 2.019531-16.199219-2.902344-18.191407-10.890625zm0 0" fill="#76e2f8"/><path d="m3.242188 294.578125c-4.777344-6.765625-3.148438-16.117187 3.617187-20.890625 12.039063-8.488281 25.328125-11.152344 37.0625-13.496094 29.25-5.863281 37.253906-13.304687 43.261719-43.238281 8.253906-41.28125 22.820312-56.363281 64.789062-64.742187 10.679688-2.136719 19.894532-3.984376 26.953125-9.574219 6.472657-5.199219 15.90625-4.085938 21.0625 2.429687 5.15625 6.484375 4.074219 15.910156-2.429687 21.050782-12.714844 10.085937-27.058594 12.953124-39.699219 15.484374-29.253906 5.863282-35.257813 11.304688-41.265625 41.238282-8.253906 41.28125-24.816406 58.363281-66.785156 66.746094-10.09375 2.019531-18.792969 3.761718-25.664063 8.605468-6.78125 4.769532-16.121093 3.148438-20.902343-3.613281zm0 0" fill="#76e2f8"/><path d="m87.191406 505.660156c-4.773437-6.761718-3.164062-16.117187 3.605469-20.902344 10.742187-7.550781 12.976563-19.542968 15.597656-32.613281 8.316407-41.589843 23.128907-56.449219 64.808594-64.761719 29.574219-5.925781 37.320313-13.605468 43.261719-43.25 8.292968-41.441406 22.984375-56.382812 64.789062-64.730468 11.835938-2.371094 22.058594-4.40625 29.457032-11.800782 1.890624-1.902343 3.457031-3.964843 4.789062-6.292968 4.058594-7.214844 13.214844-9.761719 20.449219-5.621094 7.207031 4.085938 9.726562 13.234375 5.625 20.4375-2.621094 4.609375-5.859375 8.871094-9.621094 12.644531-13.84375 13.835938-30.292969 17.128907-44.8125 20.027344-29.375 5.882813-35.28125 11.40625-41.265625 41.222656-8.078125 40.457031-24.0625 58.21875-66.785156 66.757813-29.6875 5.941406-35.351563 11.695312-41.28125 41.25-4.101563 20.535156-9.019532 38.035156-27.699219 51.234375-6.800781 4.757812-16.121094 3.160156-20.917969-3.601563zm0 0" fill="#25d9f8"/><path d="m184.824219 510.875c-7.660157-3.164062-11.308594-11.917969-8.160157-19.574219 11.351563-27.425781 32.945313-35.277343 58.167969-40.3125 29.253907-5.859375 37.257813-13.300781 43.261719-43.234375 8.203125-41.03125 22.554688-56.324218 64.777344-64.761718 7.761718-1.550782 15.101562-3.015626 21.152344-5.957032 7.542968-3.574218 16.433593-.5 20.054687 6.921875 3.617187 7.453125.511719 16.425781-6.929687 20.042969-9.523438 4.625-19.117188 6.542969-28.390626 8.386719-29.820312 5.976562-35.355468 11.863281-41.25 41.234375-8.1875 40.953125-24.484374 58.3125-66.785156 66.761718-16.710937 3.34375-29.636718 6.171876-36.3125 22.335938-3.167968 7.664062-11.929687 11.289062-19.585937 8.15625zm0 0" fill="#25d9f8"/><path d="m446.5 66.308594c-82.5-82.746094-212.699219-88.742188-302.699219-14.09375-13.800781 11.394531-19.800781 28.78125-15.902343 45.570312 4.199218 20.6875 6.601562 38.375 21.601562 53.363282 13.800781 13.789062 30.296875 17.085937 45 19.785156 11.699219 2.398437 21.898438 4.496094 29.398438 11.992187 7.5 7.195313 9.300781 17.386719 11.699218 29.378907 3 14.390624 6.300782 30.878906 20.101563 44.671874 13.800781 13.789063 30.300781 17.085938 44.699219 20.085938 12 2.398438 22.199218 4.496094 29.398437 11.691406 7.5 7.496094 9.601563 17.6875 12 29.378906 7.5 37.472657 25.800781 63.855469 68.699219 63.855469 23.402344 0 41.402344-8.691406 55.503906-22.785156 14.097656-14.089844 24.296875-33.875 32.398438-55.460937 30.601562-82.144532 10.199218-175.378907-51.898438-237.433594zm0 0" fill="#a8ebfa"/><path d="m498.398438 303.742188c-8.097657 21.585937-18.300782 41.371093-32.398438 55.460937-14.101562 14.089844-32.101562 22.785156-55.5 22.785156-42.902344 0-61.199219-26.382812-68.699219-63.855469-2.402343-11.691406-4.503906-21.882812-12.003906-29.378906-7.199219-7.195312-17.398437-9.292968-29.398437-11.691406-14.398438-3-30.898438-6.296875-44.699219-20.085938l190.800781-190.667968c62.097656 62.054687 82.5 155.289062 51.898438 237.433594zm0 0" fill="#76e2f8"/><path d="m451.300781 206.011719c.898438 8.394531-4.800781 15.886719-13.199219 16.785156h-1.800781c-7.5 0-13.800781-5.695313-14.703125-13.191406-3.597656-30.277344-17.398437-58.457031-38.699218-79.742188-21.898438-22.1875-49.796876-35.375-80.699219-38.675781-8.101563-.894531-14.097657-8.390625-13.199219-16.484375.898438-8.394531 8.398438-14.390625 16.5-13.492187 37.5 4.199218 71.699219 20.386718 98.699219 47.367187 26.101562 26.082031 42.898437 60.859375 47.101562 97.433594zm0 0" fill="#76e2f8"/><path d="m451.300781 206.011719c.898438 8.394531-4.800781 15.886719-13.199219 16.785156h-1.800781c-7.5 0-13.800781-5.695313-14.703125-13.191406-3.597656-30.277344-17.398437-58.457031-38.699218-79.742188l21.300781-21.285156c26.101562 26.082031 42.898437 60.859375 47.101562 97.433594zm0 0" fill="#25d9f8"/></svg>