<svg height="512pt" viewBox="0 -46 512 512" width="512pt" xmlns="http://www.w3.org/2000/svg"><path d="m447.398438 333c-46.796876 53.101562-115.199219 87-191.398438 87-76.5 0-144.902344-33.898438-191.699219-87.300781l191.699219-2.699219zm0 0" fill="#c6715a"/><path d="m256 330 191.398438 3c-46.796876 53.101562-115.199219 87-191.398438 87zm0 0" fill="#99503d"/><path d="m489.800781 268.800781c-3.300781 6.898438-7.601562 13.800781-11.203125 20.097657-8.699218 15.902343-19.199218 30.601562-31.199218 44.101562-55.199219 17.097656-121.496094 27-191.398438 27-69.601562 0-135.902344-9.902344-191.699219-27.300781-11.699219-13.199219-22.898437-27.898438-31.601562-43.199219-9.597657-16.800781-17.097657-34.800781-22.5-53.699219l245.800781 30.597657 30 3.601562zm0 0" fill="#b35f49"/><path d="m489.800781 268.800781c-3.300781 6.898438-7.601562 13.800781-11.203125 20.097657-8.699218 15.902343-19.199218 30.601562-31.199218 44.101562-55.199219 17.097656-121.496094 27-191.398438 27v-93.601562l30 3.601562zm0 0" fill="#804231"/><path d="m512 150v15c0 23.402344-3.300781 45.902344-9.300781 67.199219-3.597657 12.601562-7.800781 24.902343-12.898438 36.601562-57.601562 19.800781-128.800781 31.199219-203.800781 31.199219-10.199219 0-20.097656-.300781-30-.902344-99-3.597656-188.199219-27.296875-245.800781-63.296875-3.898438-14.101562-6.898438-28.5-8.699219-43.203125-.898438-8.996094-1.5-18.296875-1.5-27.597656v-15c0-8.402344 6.597656-15 15-15h482c8.402344 0 15 6.597656 15 15zm0 0" fill="#c6715a"/><path d="m512 150v15c0 23.402344-3.300781 45.902344-9.300781 67.199219-3.597657 12.601562-7.800781 24.902343-12.898438 36.601562-57.601562 19.800781-128.800781 31.199219-203.800781 31.199219-10.199219 0-20.097656-.300781-30-.902344v-164.097656h241c8.402344 0 15 6.597656 15 15zm0 0" fill="#99503d"/><path d="m0 150c0 15.789062 27.128906 30.113281 69.515625 40.828125v-81.65625c-42.386719 10.714844-69.515625 25.039063-69.515625 40.828125zm0 0" fill="#68544f"/><path d="m442.484375 109.171875v81.65625c42.386719-10.714844 69.515625-25.039063 69.515625-40.828125s-27.128906-30.113281-69.515625-40.828125zm0 0" fill="#53433f"/><path d="m162.652344 66.128906c-8.308594-3.808594-17.230469-6.128906-26.652344-6.128906-44.210938 0-75 45.105469-75 90 0 14.78125 3.253906 28.523438 8.515625 40.828125 30.894531 7.808594 70.40625 13.683594 115.121094 16.746094zm0 0" fill="#f6a96c"/><path d="m376 60c-9.421875 0-18.34375 2.320312-26.652344 6.128906l-21.984375 141.445313c44.714844-3.0625 84.226563-8.9375 115.121094-16.746094 5.261719-12.304687 8.515625-26.046875 8.515625-40.828125 0-44.921875-30.816406-90-75-90zm0 0" fill="#ea9b58"/><path d="m361 120c0 34.800781-13.199219 65.699219-33.601562 87.597656-21.898438 1.5-47.398438 2.402344-71.398438 2.402344s-49.5-.902344-71.398438-2.402344c-20.402343-21.898437-33.601562-52.796875-33.601562-87.597656 0-61.5 44.398438-120 105-120s105 58.5 105 120zm0 0" fill="#fed2a4"/><path d="m327.398438 207.597656c-21.898438 1.5-47.398438 2.402344-71.398438 2.402344v-210c60.601562 0 105 58.5 105 120 0 34.800781-13.199219 65.699219-33.601562 87.597656zm0 0" fill="#ffbd86"/></svg>