<svg height="512pt" viewBox="0 0 512 512.00078" width="512pt" xmlns="http://www.w3.org/2000/svg"><g fill="#53433f"><path d="m176.003906 211.003906h-7.894531c-25.136719 0-48.457031-12.480468-62.402344-33.398437l-37.734375-56.601563h-21.972656c-8.289062 0-15-6.710937-15-15 0-8.289062 6.710938-15 15-15h30c5.007812 0 9.695312 2.503906 12.480469 6.679688l42.1875 63.28125c8.363281 12.554687 22.367187 20.039062 37.441406 20.039062h7.894531c8.292969 0 15 6.707032 15 15 0 8.289063-6.707031 15-15 15zm0 0"/><path d="m105.984375 512c-2.253906 0-4.539063-.511719-6.695313-1.582031-7.410156-3.707031-10.414062-13.714844-6.707031-21.125l27.214844-54.449219-14.851563-44.601562c-4.644531-13.886719-2.390624-28.667969 6.167969-40.546876 8.554688-11.882812 21.867188-18.691406 36.503907-18.691406h18.382812c8.289062 0 15 6.707032 15 15 0 8.289063-6.710938 15-15 15h-18.382812c-4.878907 0-9.316407 2.269532-12.160157 6.226563-2.855469 3.96875-3.605469 8.890625-2.066406 13.519531l16.832031 50.507812c1.261719 3.777344.96875 7.894532-.804687 11.453126l-30 61c-2.636719 5.257812-7.925781 8.289062-13.433594 8.289062zm0 0"/><path d="m138.097656 241.003906c-25.199218 0-48.296875 12.597656-62.398437 33.296875l-37.800781 56.703125h-22.898438c-8.402344 0-15 6.597656-15 15 0 8.398438 6.597656 15 15 15h31c5.097656 0 9.601562-2.402344 12.597656-6.601562l42-63.300782c8.402344-12.597656 22.5-20.097656 37.5-20.097656h12.902344l30-15-30-15zm0 0"/></g><path d="m343.890625 211.003906h-7.898437c-8.289063 0-15-6.710937-15-15 0-8.292968 6.710937-15 15-15h7.898437c15.070313 0 29.074219-7.484375 37.4375-20.039062l42.1875-63.28125c2.785156-4.175782 7.472656-6.679688 12.480469-6.679688h30c8.292968 0 15 6.710938 15 15 0 8.289063-6.707032 15-15 15h-21.972656l-37.734376 56.601563c-13.945312 20.917969-37.265624 33.398437-62.398437 33.398437zm0 0" fill="#3e322e"/><path d="m406.011719 512c-5.507813 0-10.796875-3.03125-13.433594-8.289062l-30-61c-1.769531-3.5625-2.0625-7.675782-.804687-11.457032l16.832031-50.507812c1.535156-4.628906.789062-9.550782-2.066407-13.519532-2.839843-3.953124-7.28125-6.226562-12.15625-6.226562h-18.386718c-8.289063 0-15-6.707031-15-15 0-8.289062 6.710937-15 15-15h18.386718c14.632813 0 27.949219 6.8125 36.503907 18.691406 8.554687 11.878906 10.808593 26.660156 6.164062 40.546875l-14.851562 44.605469 27.214843 54.445312c3.707032 7.414063.703126 17.421876-6.707031 21.128907-2.152343 1.070312-4.4375 1.582031-6.695312 1.582031zm0 0" fill="#3e322e"/><path d="m373.898438 271.003906c15 0 29.101562 7.5 37.5 20.097656l42 63.300782c3 4.199218 7.5 6.601562 12.597656 6.601562h31c8.402344 0 15-6.601562 15-15 0-8.402344-6.597656-15-15-15h-22.898438l-37.800781-56.703125c-14.101563-20.699219-37.199219-33.296875-62.398437-33.296875h-12.902344l-30 15 30 15zm0 0" fill="#3e322e"/><path d="m347.496094 114.703125-11.699219 59.398437c-1.5 6.902344-7.796875 12-14.699219 12-1.199218 0-2.101562-.300781-3-.300781h-124.199218c-8.097657 1.5-15.898438-3.597656-17.699219-11.699219l-11.699219-59.398437c-9-45.300781 13.5-92.5 54.902344-113.199219 5.699218-2.699218 12.597656-1.800781 17.097656 3 4.800781 4.5 5.699219 11.398438 3 17.101563-16.199219 32.398437-13.800781 71.796875 6.300781 101.796875l10.199219 15.601562 10.203125-15.601562c20.097656-30 22.496094-69.398438 6.296875-101.796875-2.699219-5.703125-1.800781-12.601563 3-17.101563 4.5-4.800781 11.402344-5.699218 17.097656-3 41.398438 20.699219 63.898438 67.898438 54.898438 113.199219zm0 0" fill="#53433f"/><path d="m318.097656 185.800781h-62.097656v-46.796875l10.199219-15.601562c20.097656-30 22.5-69.398438 6.300781-101.800782-2.699219-5.699218-1.800781-12.597656 3-17.097656 4.5-4.800781 11.398438-5.699218 17.097656-3 41.398438 20.699219 63.898438 67.898438 54.898438 113.199219l-11.699219 59.398437c-1.5 6.902344-7.796875 12-14.699219 12-1.199218 0-2.101562-.300781-3-.300781zm0 0" fill="#3e322e"/><path d="m347.195312 210.101562-10.496093 30.902344-31.5 30h-98.402344l-31.5-30-10.496094-30.902344c-4.503906-13.796874-2.101562-28.5 6.296875-40.5 8.703125-11.699218 21.902344-18.597656 36.601563-18.597656h33.300781l15 30 15-30h33.296875c14.699219 0 27.902344 6.898438 36.601563 18.597656 8.398437 12 10.800781 26.703126 6.296874 40.5zm0 0" fill="#68544f"/><path d="m347.195312 210.101562-10.496093 30.902344-31.5 30h-49.199219v-90l15-30h33.296875c14.699219 0 27.902344 6.898438 36.601563 18.597656 8.398437 12 10.800781 26.703126 6.296874 40.5zm0 0" fill="#53433f"/><path d="m360.996094 241.003906v105c0 57.898438-47.097656 104.996094-104.996094 104.996094-57.902344 0-105-47.097656-105-104.996094v-105h75c1.199219 0 2.097656 0 2.996094.300782 10.503906.597656 19.800781 4.796874 27.003906 11.398437 7.199219-6.601563 16.5-10.800781 27-11.398437.898438-.300782 2.097656-.300782 3-.300782zm0 0" fill="#90e36a"/><path d="m360.996094 241.003906v105c0 57.898438-47.097656 104.996094-104.996094 104.996094v-198.296875c7.199219-6.601563 16.5-10.800781 27-11.398437.898438-.300782 2.097656-.300782 3-.300782zm0 0" fill="#56c225"/><path d="m271 151.003906v45c0 8.398438-6.601562 15-15 15-8.402344 0-15-6.601562-15-15v-45zm0 0" fill="#53433f"/><path d="m271 151.003906v45c0 8.398438-6.601562 15-15 15v-60zm0 0" fill="#3e322e"/></svg>