<svg height="512pt" viewBox="-22 0 512 512.00036" width="512pt" xmlns="http://www.w3.org/2000/svg"><path d="m458.378906 1.011719c-5.703125-2.097657-12.003906-.898438-16.203125 3.300781l-310.453125 312.355469c-6 6-6 15.300781 0 21.304687l42.308594 42.304688c3 3 6.902344 4.503906 10.800781 4.503906 3.601563 0 7.5-1.503906 10.503907-4.503906 58.207031-58.210938 88.113281-77.113282 113.617187-91.214844 20.703125-11.402344 40.207031-21.902344 69.3125-51.308594 63.910156-63.910156 82.214844-149.125 87.3125-193.234375 2.101563-17.101562 2.101563-27.902343 2.101563-29.40625 0-6.296875-3.601563-11.699219-9.300782-14.101562zm0 0" fill="#ede9e8"/><path d="m465.578125 44.519531c-5.097656 44.109375-23.402344 129.324219-87.3125 193.234375-29.105469 29.40625-48.609375 39.90625-69.3125 51.308594-25.503906 14.101562-55.410156 33.003906-113.617187 91.214844-3.003907 3-6.902344 4.503906-10.503907 4.503906-3.898437 0-7.800781-1.503906-10.800781-4.503906l-21.003906-21.003906 21.003906-21.300782zm0 0" fill="#dfd7d5"/><path d="m237.640625 422.585938c-5.699219 6-15.300781 6-21.003906 0-13.800781-13.503907-34.203125-16.203126-51.007813-8.402344l-67.8125-67.8125c7.804688-16.800782 5.101563-37.207032-8.402344-51.007813-6-5.699219-6-15.300781 0-21.003906 5.703126-6 15.304688-6 21.003907 0l127.222656 127.222656c6 5.703125 6 15.304688 0 21.003907zm0 0" fill="#c6715a"/><path d="m123.019531 392.582031 19.203125 40.804688-21.003906 21.304687-42.605469-17.703125 21.304688 38.707031-31.804688 31.804688c-6 6-15.304687 6-21.304687 0l-21.304688-21.003906-21.003906-21.304688c-6-6-6-15.300781 0-21.304687l31.804688-31.804688 44.710937 15.304688-23.707031-36.605469 21.304687-21.003906 40.808594 19.203125c3.597656-3.601563-23.703125-38.109375-21.605469-42.609375l38.40625 8.402344 6.902344 14.101562 22.503906 45.308594c-4.5 2.398437-39.007812-25.203125-42.609375-21.601563zm0 0" fill="#c6715a"/><path d="m237.640625 422.585938c-5.699219 6-15.300781 6-21.003906 0-13.800781-13.503907-34.203125-16.203126-51.007813-8.402344l-33.90625-33.90625 42.308594-42.304688 63.609375 63.609375c6 5.703125 6 15.304688 0 21.003907zm0 0" fill="#99503d"/><path d="m123.019531 392.582031 19.203125 40.804688-21.003906 21.304687-42.605469-17.703125 21.304688 38.707031-31.804688 31.804688c-6 6-15.304687 6-21.304687 0l-21.304688-21.003906 117.621094-117.621094 22.503906 45.308594c-4.5 2.398437-39.007812-25.203125-42.609375-21.601563zm0 0" fill="#99503d"/><path d="m165.628906 414.183594c-4.5 2.402344-9 4.800781-12.601562 8.402344l-10.800782 10.800781-63.613281-63.609375 10.800781-10.800782c3.601563-3.601562 6.304688-8.105468 8.402344-12.605468zm0 0" fill="#725d57"/><path d="m165.628906 414.183594c-4.5 2.402344-9 4.800781-12.601562 8.402344l-10.800782 10.800781-31.808593-31.804688 21.304687-21.304687zm0 0" fill="#53433f"/><path d="m121.222656 454.691406-21.304687 21.003906-63.609375-63.613281 21-21.300781zm0 0" fill="#725d57"/><path d="m89.414062 422.886719 31.808594 31.804687-21.304687 21.003906-31.804688-31.808593zm0 0" fill="#53433f"/></svg>