<svg height="512pt" viewBox="0 0 511 512" width="512pt" xmlns="http://www.w3.org/2000/svg"><path d="m510.992188 133.972656c-11.308594-34.894531-45.984376-63.574218-84.671876-71.335937-21.164062-4.425781-43.472656-3.269531-64.523437 3.351562-11.292969 3.515625-22.324219 8.703125-32.78125 15.410157l97.6875 88.855468c.6875-1.980468 2.300781-3.808594 4.832031-5.449218 6.578125-4.351563 20-5.363282 33.140625 3.792968 5.183594 3.53125 11.160157 5.347656 17.210938 5.347656 3.164062 0 6.355469-.5 9.460937-1.507812 7.765625-2.507812 14.078125-7.882812 17.796875-15.148438 3.707031-7.277343 4.367188-15.554687 1.847657-23.316406zm0 0" fill="#56c225"/><path d="m150.246094 66.003906c-21.078125-6.605468-43.417969-7.761718-64.4375-3.398437-38.816406 7.792969-72.492188 36.472656-83.800782 71.367187-2.523437 7.761719-1.863281 16.039063 1.84375 23.316406 3.722657 7.265626 10.035157 12.644532 17.769532 15.148438 3.003906.964844 6.078125 1.476562 9.183594 1.476562 6.285156-.015624 12.714843-2.050781 18.984374-6.355468 11.675782-8.085938 24.066407-7.121094 30.847657-2.636719 3.824219 2.460937 4.730469 5.109375 4.9375 6.472656l98.949219-89c-10.898438-7.175781-22.441407-12.699219-34.277344-16.390625zm0 0" fill="#70da40"/><path d="m127.808594 440.503906-61.199219-113.523437c-5.683594 6.136719-10.707031 12.65625-14.910156 19.304687-11.878907 18.648438-18.792969 39.917969-19.964844 61.375-2.519531 39.492188 16.464844 79.453125 47.238281 99.402344 5.011719 3.253906 10.722656 4.9375 16.566406 4.9375 2.140626 0 4.292969-.234375 6.433594-.6875 7.96875-1.699219 14.808594-6.402344 19.261719-13.269531 5.183594-8.027344 6.328125-17.785157 2.5625-28.449219-4.703125-13.050781-.777344-23.816406 4.011719-29.089844zm0 0" fill="#70da40"/><path d="m461.316406 346.34375c-4.234375-6.707031-9.257812-13.226562-14.941406-19.363281l-61.199219 113.523437c4.789063 5.269532 8.714844 16.039063 3.414063 30.757813-3.164063 8.996093-2.023438 18.75 3.179687 26.792969 4.4375 6.855468 11.277344 11.558593 19.246094 13.257812 2.152344.453125 4.304687.6875 6.429687.6875 5.84375 0 11.558594-1.6875 16.554688-4.9375 30.789062-19.949219 49.773438-59.910156 47.253906-99.269531-1.171875-21.589844-8.085937-42.859375-19.9375-61.449219zm0 0" fill="#56c225"/><path d="m331.492188 74.996094v10.203125c0 8.398437-6.601563 15-15 15h-119.996094c-8.402344 0-15-6.601563-15-15v-10.203125c0-41.398438 33.597656-74.996094 74.996094-74.996094 41.398437 0 75 33.597656 75 74.996094zm0 0" fill="#70da40"/><path d="m331.492188 74.996094v10.203125c0 8.398437-6.601563 15-15 15h-60v-100.199219c41.398437 0 75 33.597656 75 74.996094zm0 0" fill="#56c225"/><path d="m256.492188 60c-107.394532 0-194.992188 87.59375-194.992188 194.992188v62c0 107.394531 87.59375 194.992187 194.992188 194.992187 107.398437 0 194.996093-87.597656 194.996093-194.992187v-62c0-107.398438-87.597656-194.992188-194.996093-194.992188zm0 0" fill="#725d57"/><path d="m451.488281 254.992188v62c0 107.394531-87.597656 194.992187-194.996093 194.992187v-451.984375c107.398437 0 194.996093 87.59375 194.996093 194.992188zm0 0" fill="#53433f"/><path d="m256.492188 391.988281-10.605469-34.394531-63.25-34.859375-27.164063 1.945313-18.945312 52.277343-.246094.183594c22.210938 44.175781 67.484375 74.847656 120.210938 74.847656l30-26.875zm0 0" fill="#b35f49"/><path d="m256.492188 119.996094c-52.78125 0-98.105469 30.734375-120.285157 74.984375l.316407.042969-7.582032 56.359374 53.695313-2.132812c.75-1.800781 61.84375-3.457031 63.25-4.863281l10.605469-64.390625 30-22.71875zm0 0" fill="#b35f49"/><path d="m182.636719 249.25-46.109375-54.226562-.320313-.042969c-9.105469 18.160156-14.710937 38.351562-14.710937 60.011719v62c0 21.714843 5.640625 41.957031 14.785156 60.152343l.246094-.183593 46.113281-54.226563c-.75-1.804687 28.855469-33.75 28.855469-35.742187zm0 0" fill="#99503d"/><path d="m376.765625 194.949219-.304687.074219-56.410157 1.058593 10.296875 53.167969c.746094 1.800781-28.855468 35.75-28.855468 37.742188l28.855468 35.738281-4.578125 59.894531 50.691407-5.667969.261718.152344c9.140625-18.183594 14.765625-38.414063 14.765625-60.121094v-61.996093c0-21.671876-5.613281-41.875-14.722656-60.042969zm0 0" fill="#804231"/><path d="m256.492188 119.996094v60l10.605468 64.390625c1.40625 1.40625 62.503906 3.0625 63.25 4.863281l46.113282-54.226562.300781-.074219c-22.1875-44.234375-67.5-74.953125-120.269531-74.953125zm0 0" fill="#99503d"/><path d="m376.460938 376.960938-46.113282-54.226563-63.25 4.859375-10.605468 64.394531v60c52.738281 0 98.023437-30.6875 120.230468-74.875zm0 0" fill="#99503d"/><path d="m331.492188 254.992188v62c0 2.097656-.300782 3.898437-1.199219 5.699218-.601563 1.800782-1.800781 3.597656-3.300781 4.796875l-60 60c-2.699219 3-6.597657 4.5-10.5 4.5-3.898438 0-7.796876-1.5-10.496094-4.5l-60-60c-1.5-1.199219-2.699219-2.996093-3.300782-4.796875-.898437-1.800781-1.199218-3.601562-1.199218-5.699218v-62c0-2.097657.300781-3.898438 1.199218-5.699219.601563-1.800781 1.800782-3.601563 3.300782-4.800781l60-59.996094c2.699218-3 6.597656-4.5 10.496094-4.5 3.902343 0 7.800781 1.5 10.5 4.5l60 59.996094c1.5 1.199218 2.699218 3 3.300781 4.800781.898437 1.800781 1.199219 3.601562 1.199219 5.699219zm0 0" fill="#c6715a"/><path d="m330.292969 249.292969c.898437 1.800781 1.199219 3.601562 1.199219 5.699219v62c0 2.097656-.300782 3.898437-1.199219 5.699218-.601563 1.800782-1.800781 3.597656-3.300781 4.796875l-60 60c-2.699219 3-6.597657 4.5-10.5 4.5v-211.992187c3.902343 0 7.800781 1.5 10.5 4.5l60 59.996094c1.5 1.199218 2.699218 3 3.300781 4.800781zm0 0" fill="#b35f49"/></svg>