<svg height="512pt" viewBox="0 0 512 512" width="512pt" xmlns="http://www.w3.org/2000/svg"><path d="m211 151v-121h-121v121l64.375 30zm0 0" fill="#68544f"/><path d="m301 151v-121h121v121l-65.375 30zm0 0" fill="#53433f"/><path d="m331 230.800781-30 70.199219h-90l-30-65.699219 30-84.300781h90zm0 0" fill="#53433f"/><path d="m331 230.800781-30 70.199219h-45v-150h45zm0 0" fill="#3e322e"/><path d="m211 151h-136c-6.878906 0-12.875 4.679688-14.542969 11.355469l-60.457031 258.644531 105 30 106-30zm0 0" fill="#90e36a"/><path d="m301 151h136c6.878906 0 12.875 4.679688 14.542969 11.355469l60.457031 258.644531-105 30-106-30zm0 0" fill="#70da40"/><path d="m497 512h-181c-8.285156 0-15-6.714844-15-15v-76h211v76c0 8.285156-6.714844 15-15 15zm0 0" fill="#53433f"/><path d="m226 60h-151c-8.289062 0-15-6.710938-15-15v-30c0-8.289062 6.710938-15 15-15h151c8.289062 0 15 6.710938 15 15v30c0 8.289062-6.710938 15-15 15zm0 0" fill="#90e36a"/><path d="m15 512h181c8.285156 0 15-6.714844 15-15v-76h-211v76c0 8.285156 6.714844 15 15 15zm0 0" fill="#68544f"/><path d="m271 136v180c0 8.398438-6.597656 15-15 15s-15-6.601562-15-15v-180c0-8.402344 6.597656-15 15-15s15 6.597656 15 15zm0 0" fill="#68544f"/><path d="m271 45v-30c0-8.289062 6.710938-15 15-15h151c8.289062 0 15 6.710938 15 15v30c0 8.289062-6.710938 15-15 15h-151c-8.289062 0-15-6.710938-15-15zm0 0" fill="#70da40"/><path d="m271 136v180c0 8.398438-6.597656 15-15 15v-210c8.402344 0 15 6.597656 15 15zm0 0" fill="#53433f"/></svg>