<svg height="512pt" viewBox="-31 0 512 512" width="512pt" xmlns="http://www.w3.org/2000/svg"><path d="m255 0h-60c-24.902344 0-45 20.097656-45 45 0 24.898438 20.097656 45 45 45h60c24.902344 0 45-20.101562 45-45 0-24.902344-20.097656-45-45-45zm0 60h-60c-8.402344 0-15-6.601562-15-15 0-8.402344 6.597656-15 15-15h60c8.402344 0 15 6.597656 15 15 0 8.398438-6.597656 15-15 15zm0 0" fill="#fdbf00"/><path d="m300 45c0 24.898438-20.097656 45-45 45h-30v-30h30c8.402344 0 15-6.601562 15-15 0-8.402344-6.597656-15-15-15h-30v-30h30c24.902344 0 45 20.097656 45 45zm0 0" fill="#ff9f00"/><path d="m225 60c-124.199219 0-225 101.800781-225 226s100.800781 226 225 226 225-101.800781 225-226-100.800781-226-225-226zm0 0" fill="#b35f49"/><path d="m450 286c0 124.199219-100.800781 226-225 226v-452c124.199219 0 225 101.800781 225 226zm0 0" fill="#804231"/><path d="m225 121c-90.902344 0-165 74.097656-165 165 0 90.898438 74.097656 165 165 165s165-74.101562 165-165c0-90.902344-74.097656-165-165-165zm0 0" fill="#ede9e8"/><path d="m390 286c0 90.898438-74.097656 165-165 165v-330c90.902344 0 165 74.097656 165 165zm0 0" fill="#dfd7d5"/><g fill="#68544f"><path d="m240 136v30c0 8.398438-6.597656 15-15 15s-15-6.601562-15-15v-30c0-8.402344 6.597656-15 15-15s15 6.597656 15 15zm0 0"/><path d="m240 406v30c0 8.398438-6.597656 15-15 15s-15-6.601562-15-15v-30c0-8.402344 6.597656-15 15-15s15 6.597656 15 15zm0 0"/><path d="m105 301h-30c-8.289062 0-15-6.710938-15-15s6.710938-15 15-15h30c8.289062 0 15 6.710938 15 15s-6.710938 15-15 15zm0 0"/></g><path d="m375 301h-30c-8.289062 0-15-6.710938-15-15s6.710938-15 15-15h30c8.289062 0 15 6.710938 15 15s-6.710938 15-15 15zm0 0" fill="#53433f"/><path d="m320.398438 381.398438c-4.796876 4.800781-12.296876 6-18.296876 2.402343-2.101562-1.199219-46.5-27.902343-77.101562-46.199219-16.199219-9.902343-28.800781-17.402343-28.800781-17.402343-1.199219-.898438-2.101563-1.5-3-2.398438l1.800781-61.800781 30-.902344 31.800781-.898437c.898438.898437 1.5 1.800781 2.398438 3 1.800781 3 63.300781 105.902343 63.601562 105.902343 3.597657 5.996094 2.398438 13.496094-2.402343 18.296876zm0 0" fill="#ff6c6c"/><path d="m225 181v-60c8.402344 0 15 6.597656 15 15v30c0 8.398438-6.597656 15-15 15zm0 0" fill="#53433f"/><path d="m240 406v30c0 8.398438-6.597656 15-15 15v-60c8.402344 0 15 6.597656 15 15zm0 0" fill="#53433f"/><path d="m320.398438 381.398438c-4.796876 4.800781-12.296876 6-18.296876 2.402343-2.101562-1.199219-46.5-27.902343-77.101562-46.199219v-82.5l31.800781-.902343c.898438.902343 1.5 1.800781 2.398438 3 1.800781 3 63.300781 105.902343 63.601562 105.902343 3.597657 5.996094 2.398438 13.496094-2.402343 18.296876zm0 0" fill="#ff4949"/><path d="m256.800781 254.199219-63.601562 63.601562c-.898438-.902343-1.5-1.800781-2.398438-3-1.800781-3-63.300781-105.902343-63.601562-105.902343-3.597657-6-2.398438-13.5 2.402343-18.296876 4.796876-4.800781 12.296876-5.703124 18.300782-2.402343 2.097656 1.199219 46.5 27.898437 77.097656 46.199219 16.199219 9.902343 28.800781 17.402343 28.800781 17.402343 1.199219.898438 2.101563 1.5 3 2.398438zm0 0" fill="#73bcff"/><path d="m256.800781 254.199219-31.800781 31.800781v-51.601562c16.199219 9.902343 28.800781 17.402343 28.800781 17.402343 1.199219.898438 2.101563 1.5 3 2.398438zm0 0" fill="#3aaaff"/></svg>