<svg height="512pt" viewBox="0 0 512 512.001" width="512pt" xmlns="http://www.w3.org/2000/svg"><path d="m397.304688 96.039062c-1.390626 0-2.8125-.191406-4.21875-.601562-7.953126-2.328125-12.511719-10.664062-10.179688-18.617188l19.363281-66.050781c2.328125-7.953125 10.648438-12.453125 18.617188-10.183593 7.953125 2.332031 12.511719 10.664062 10.183593 18.621093l-19.367187 66.046875c-1.917969 6.550782-7.910156 10.785156-14.398437 10.785156zm0 0" fill="#f6a96c"/><path d="m360.550781 93.371094c-3.835937 0-7.675781-1.464844-10.605469-4.394532l-26.894531-26.878906c-5.859375-5.859375-5.859375-15.355468 0-21.210937 5.859375-5.859375 15.351563-5.859375 21.210938 0l26.894531 26.878906c5.859375 5.859375 5.859375 15.351563 0 21.210937-2.929688 2.929688-6.765625 4.394532-10.605469 4.394532zm0 0" fill="#f6a96c"/><path d="m431.039062 130.125c-6.769531 0-12.90625-4.613281-14.5625-11.484375-1.945312-8.058594 3.003907-16.15625 11.0625-18.09375l65.945313-15.90625c8.085937-1.992187 16.144531 2.988281 18.09375 11.058594 1.945313 8.058593-3.003906 16.160156-11.0625 18.09375l-65.945313 15.90625c-1.1875.292969-2.359374.425781-3.53125.425781zm0 0" fill="#ea9b58"/><path d="m450.332031 189.375-26.878906-26.894531c-5.859375-5.859375-5.859375-15.351563 0-21.210938 5.855469-5.859375 15.351563-5.859375 21.210937 0l26.878907 26.894531c5.859375 5.859376 5.859375 15.355469 0 21.210938-5.859375 5.859375-15.351563 5.859375-21.210938 0zm0 0" fill="#ea9b58"/><path d="m157.917969 460.363281c-26.097657 24-71.097657 52.800781-139.5 51.601563l-.296875-.300782c-5.402344.898438-10.203125-.898437-13.199219-4.199218-1.203125-.601563-2.101563-2.101563-2.703125-3.300782-4.5-8.398437-7.800781-87 49.800781-149.699218 5.699219-6 15-6.300782 21.300781-.601563l42.597657 42.597657 42.902343 42.601562c5.398438 6.300781 5.097657 15.601562-.902343 21.300781zm0 0" fill="#fed2a4"/><path d="m158.820312 439.066406c5.398438 6.296875 5.097657 15.597656-.902343 21.296875-26.097657 24-71.097657 52.800781-139.5 51.601563l-.296875-.300782c-5.402344.898438-10.203125-.898437-13.199219-4.199218l110.996094-111zm0 0" fill="#f6a96c"/><path d="m429.117188 189.464844-30.597657 30.597656c-3 3.003906-6.902343 4.203125-10.5 4.203125-3.902343 0-7.800781-1.199219-10.800781-4.203125l-42.300781-42.296875-42.597657-42.601563c-5.703124-6-5.703124-15.296874 0-21.300781l30.597657-30.597656c29.402343-29.101563 76.800781-29.101563 106.199219 0 29.101562 29.398437 29.101562 76.796875 0 106.199219zm0 0" fill="#fed2a4"/><path d="m429.117188 189.464844-30.597657 30.597656c-3 3.003906-6.902343 4.203125-10.5 4.203125-3.902343 0-7.800781-1.199219-10.800781-4.203125l-42.300781-42.296875 94.199219-94.5c29.101562 29.398437 29.101562 76.796875 0 106.199219zm0 0" fill="#f6a96c"/><path d="m363.121094 149.265625c-76.203125-76.5-199.199219-76.199219-275.402344 0-76.5 76.199219-76.199219 199.199219 0 275.398437 76.199219 76.5 199.199219 76.199219 275.402344 0 76.5-76.199218 76.199218-199.199218 0-275.398437zm0 0" fill="#99503d"/><path d="m363.121094 424.664062c-76.203125 76.199219-199.199219 76.5-275.402344 0l275.402344-275.398437c76.199218 76.199219 76.5 199.199219 0 275.398437zm0 0" fill="#804231"/><path d="m342.121094 170.265625c-64.503906-64.503906-168.902344-64.503906-233.402344 0-64.5 64.5-64.5 168.898437 0 233.398437s168.898438 64.5 233.402344 0c64.496094-64.5 64.496094-168.898437 0-233.398437zm0 0" fill="#b35f49"/><g fill="#99503d"><path d="m342.121094 403.664062c-64.503906 64.5-168.902344 64.5-233.402344 0l233.402344-233.398437c64.496094 64.5 64.496094 168.898437 0 233.398437zm0 0"/><path d="m360.417969 286.964844c0 36-14.097657 69.898437-39.597657 95.398437s-59.398437 39.601563-95.402343 39.601563c-36 0-69.898438-14.101563-95.398438-39.601563s-39.601562-59.398437-39.601562-95.398437 14.101562-69.898438 39.601562-95.398438c5.699219-6 15.300781-6 21.300781 0 5.699219 5.699219 5.699219 15.296875 0 21.296875-20.101562 19.800781-30.902343 46.203125-30.902343 74.101563 0 27.898437 10.800781 54.300781 30.902343 74.097656 39.597657 39.902344 108.601563 39.902344 148.199219 0 20.101563-19.796875 30.898438-46.199219 30.898438-74.097656 0-27.898438-10.796875-54.300782-30.898438-74.101563-19.800781-20.097656-46.199219-30.898437-74.101562-30.898437-8.398438 0-15-6.601563-15-15 0-8.402344 6.601562-15 15-15 36 0 69.902343 14.097656 95.402343 39.601562 25.5 25.496094 39.597657 59.398438 39.597657 95.398438zm0 0"/><path d="m300.417969 287.414062c0 19.980469-7.75 38.765626-21.765625 52.78125-14.015625 14.015626-32.804688 21.769532-52.78125 21.769532-19.980469 0-38.765625-7.753906-52.785156-21.769532-14.011719-14.015624-21.765626-32.800781-21.765626-52.78125 0-8.347656 6.558594-14.910156 14.910157-14.910156 8.347656 0 14.910156 6.5625 14.910156 14.910156 0 11.925782 4.769531 23.257813 13.121094 31.609376 16.996093 17 46.21875 17 63.214843 0 8.351563-8.351563 13.121094-19.683594 13.121094-31.609376 0-11.929687-4.769531-23.257812-13.121094-31.609374-8.347656-8.347657-19.679687-13.121094-31.605468-13.121094-8.351563 0-14.910156-6.558594-14.910156-14.910156 0-8.347657 6.558593-14.910157 14.910156-14.910157 19.976562 0 38.761718 7.753907 52.78125 21.769531 14.011718 14.015626 21.765625 32.800782 21.765625 52.78125zm0 0"/></g><path d="m300.417969 286.964844c0 20.097656-7.796875 39-21.898438 53.097656-14.101562 14.101562-33 21.902344-53.101562 21.902344-20.097657 0-39-7.800782-53.097657-21.902344l21.300782-21.296875c17.097656 17.097656 46.5 17.097656 63.597656 0 8.402344-8.402344 13.199219-19.800781 13.199219-31.800781s-4.796875-23.402344-13.199219-31.800782l21.300781-21.300781c14.101563 14.101563 21.898438 33 21.898438 53.101563zm0 0" fill="#804231"/><path d="m360.417969 286.964844c0 36-14.097657 69.898437-39.597657 95.398437s-59.398437 39.601563-95.402343 39.601563c-36 0-69.898438-14.101563-95.398438-39.601563l21.300781-21.300781c39.597657 39.902344 108.601563 39.902344 148.199219 0 20.101563-19.796875 30.898438-46.199219 30.898438-74.097656 0-27.898438-10.796875-54.300782-30.898438-74.101563l21.300781-21.296875c25.5 25.496094 39.597657 59.398438 39.597657 95.398438zm0 0" fill="#804231"/><path d="m240.78125 287.414062c0 8.351563-6.5625 14.910157-14.910156 14.910157-4.175782 0-7.753906-1.789063-10.738282-4.175781-2.382812-2.980469-4.171874-6.558594-4.171874-10.734376 0-8.347656 6.558593-14.910156 14.910156-14.910156 4.171875 0 7.75 1.789063 10.734375 4.175782 2.386719 2.980468 4.175781 6.558593 4.175781 10.734374zm0 0" fill="#99503d"/><path d="m225.417969 301.964844c-4.199219 0-7.796875-1.800782-10.796875-4.199219l21.597656-21.601563c2.402344 3 4.199219 6.601563 4.199219 10.800782 0 8.398437-6.597657 15-15 15zm0 0" fill="#804231"/></svg>