<svg height="512pt" viewBox="0 0 512 512" width="512pt" xmlns="http://www.w3.org/2000/svg"><path d="m470.601562 170.597656c-18.300781-35.699218-44.800781-86.597656-81.101562-162.796875-2.398438-5.101562-8.101562-7.800781-13.5-7.800781s-11.101562 2.699219-13.5 7.800781c-36.300781 75.898438-61.5 126.796875-80.101562 162.5-32.699219 63.597657-41.398438 80.699219-41.398438 115.5 0 74.398438 60.601562 135 135 135s136-60.601562 136-135c0-34.800781-8.699219-51.902343-41.398438-115.203125zm0 0" fill="#9ed0ff"/><path d="m512 285.800781c0 74.398438-61.601562 135-136 135v-420.800781c5.398438 0 11.101562 2.699219 13.5 7.800781 36.300781 76.199219 62.800781 127.097657 81.097656 162.796875 32.703125 63.300782 41.402344 80.402344 41.402344 115.203125zm0 0" fill="#73bcff"/><path d="m172.898438 304.398438c-13.5-26.398438-30.898438-60-53.398438-106.199219-2.402344-5.097657-7.800781-8.398438-13.5-8.398438s-11.101562 3.300781-13.5 8.398438c-22.5 45.902343-39.601562 79.199219-53.398438 105.902343-30.902343 60-39.101562 74.097657-39.101562 101.699219 0 57.898438 48.101562 106 106 106s105-48.101562 105-106c0-27.601562-7.199219-41.699219-38.101562-101.402343zm0 0" fill="#9ed0ff"/><path d="m211 405.800781c0 57.898438-47.101562 106-105 106v-322c5.699219 0 11.101562 3.300781 13.5 8.398438 22.5 46.199219 39.902344 79.800781 53.398438 106.199219 30.902343 59.703124 38.101562 73.800781 38.101562 101.402343zm0 0" fill="#73bcff"/></svg>