<svg height="512pt" viewBox="0 0 512 512" width="512pt" xmlns="http://www.w3.org/2000/svg"><path d="m512 90c0 49.707031-41.292969 90-91 90s-90-40.292969-90-90 40.292969-90 90-90 91 40.292969 91 90zm0 0" fill="#c4b3af"/><path d="m421 150c-33.089844 0-60-26.910156-60-60s26.910156-60 60-60 61 26.910156 61 60-27.910156 60-61 60zm0 0" fill="#68544f"/><path d="m181 90c0 49.707031-40.292969 90-90 90s-91-40.292969-91-90 41.292969-90 91-90 90 40.292969 90 90zm0 0" fill="#dfd7d5"/><path d="m91 150c-33.089844 0-61-26.910156-61-60s27.910156-60 61-60 60 26.910156 60 60-26.910156 60-60 60zm0 0" fill="#725d57"/><path d="m256 30c-145.800781 0-256 151.597656-256 286 0 125.699219 91.601562 196 256 196s256-70.300781 256-196c0-134.402344-110.199219-286-256-286zm0 0" fill="#dfd7d5"/><path d="m512 316c0 125.699219-91.601562 196-256 196v-482c145.800781 0 256 151.597656 256 286zm0 0" fill="#c4b3af"/><path d="m256 241c-74.699219 0-135 91.300781-135 166 0 66.597656 49.199219 105 135 105s135-38.402344 135-105c0-74.699219-60.300781-166-135-166zm0 0" fill="#ede9e8"/><path d="m391 407c0 66.597656-49.199219 105-135 105v-271c74.699219 0 135 91.300781 135 166zm0 0" fill="#d2c5c2"/><path d="m361 195c0 8.285156-6.714844 15-15 15s-15-6.714844-15-15 6.714844-15 15-15 15 6.714844 15 15zm0 0" fill="#3e322e"/><path d="m181 195c0 8.285156-6.714844 15-15 15s-15-6.714844-15-15 6.714844-15 15-15 15 6.714844 15 15zm0 0" fill="#68544f"/><path d="m271 361v46c0 8.398438-6.597656 15-15 15s-15-6.601562-15-15v-46c0-8.402344 6.597656-15 15-15s15 6.597656 15 15zm0 0" fill="#68544f"/><path d="m271 361v46c0 8.398438-6.597656 15-15 15v-76c8.402344 0 15 6.597656 15 15zm0 0" fill="#3e322e"/><path d="m256 301c-26.101562 0-45 12.597656-45 30 0 15.300781 18.898438 45 45 45s45-29.699219 45-45c0-17.402344-18.898438-30-45-30zm0 0" fill="#68544f"/><path d="m256 376v-75c26.101562 0 45 12.597656 45 30 0 15.300781-18.898438 45-45 45zm0 0" fill="#3e322e"/><path d="m301 437c0 8.398438-6.597656 15-15 15s-15-6.601562-15-15c0-8.402344-6.597656-15-15-15s-15 6.597656-15 15c0 8.398438-6.597656 15-15 15s-15-6.601562-15-15c0-24.902344 20.097656-45 45-45s45 20.097656 45 45zm0 0" fill="#68544f"/><path d="m301 437c0 8.398438-6.597656 15-15 15s-15-6.601562-15-15c0-8.402344-6.597656-15-15-15v-30c24.902344 0 45 20.097656 45 45zm0 0" fill="#3e322e"/></svg>