<svg height="512pt" viewBox="-61 0 512 512.0002" width="512pt" xmlns="http://www.w3.org/2000/svg"><path d="m25.605469 4.402344c-4.292969-4.277344-10.722657-5.566406-16.347657-3.253906-5.609374 2.316406-9.257812 7.792968-9.257812 13.859374v59.996094c0 34.160156 23.070312 65.015625 56.089844 73.597656 1.273437.335938 2.53125.484376 3.792968.484376l35.023438-75.382813zm0 0" fill="#53433f"/><path d="m380.738281 1.148438c-5.609375-2.34375-12.058593-1.023438-16.347656 3.253906l-69.300781 69.300781c-5.859375 5.859375-5.859375 15.351563 0 21.210937l20.519531 42.953126c1.757813 6.75 7.835937 11.21875 14.503906 11.21875 1.257813 0 2.519531-.144532 3.792969-.484376 33.015625-8.582031 56.085938-39.4375 56.085938-73.59375v-60c.003906-6.066406-3.644532-11.542968-9.253907-13.859374zm0 0" fill="#3e322e"/><path d="m194.996094 30.007812c-140.398438 0-164.996094 83.199219-164.996094 255.996094 0 182.996094 30.898438 225.996094 164.996094 225.996094s165-43 165-225.996094c0-172.800781-24.601563-255.996094-165-255.996094zm0 0" fill="#725d57"/><path d="m359.996094 286.003906c0 182.996094-30.902344 225.996094-165 225.996094v-481.992188c140.398437 0 165 83.195313 165 255.996094zm0 0" fill="#68544f"/><path d="m299.996094 226.003906c0 8.285156-6.714844 15-15 15s-15-6.714844-15-15 6.714844-15 15-15 15 6.714844 15 15zm0 0" fill="#3e322e"/><path d="m120 226.003906c0 8.285156-6.71875 15-15 15-8.285156 0-15-6.714844-15-15s6.714844-15 15-15c8.28125 0 15 6.714844 15 15zm0 0" fill="#53433f"/><path d="m209.695312 193.003906c-1.5-6.898437-7.496093-12-14.699218-12-7.199219 0-13.199219 5.097656-14.699219 12l-30 150.996094c-.898437 5.101562.601563 10.203125 4.199219 13.5 11.101562 11.398438 25.800781 16.800781 40.5 16.800781 14.699218 0 29.398437-5.402343 40.5-16.800781 3.597656-3.300781 5.101562-8.398438 4.199218-13.5zm0 0" fill="#dfd7d5"/><path d="m224.996094 452c-8.289063 0-15-6.707031-15-15 0-24.8125 20.1875-45 45-45 8.292968 0 15 6.710938 15 15 0 8.292969-6.707032 15-15 15-8.273438 0-15 6.726562-15 15 0 8.292969-6.707032 15-15 15zm0 0" fill="#3e322e"/><path d="m164.996094 452c-8.289063 0-14.996094-6.707031-14.996094-15 0-8.273438-6.726562-15-15-15-8.292969 0-15-6.707031-15-15 0-8.289062 6.707031-15 15-15 24.8125 0 44.996094 20.1875 44.996094 45 0 8.292969-6.707032 15-15 15zm0 0" fill="#53433f"/><path d="m239.695312 344c.902344 5.101562-.597656 10.203125-4.199218 13.5-11.097656 11.398438-25.800782 16.800781-40.496094 16.800781v-193.296875c7.199219 0 13.199219 5.101563 14.699219 12zm0 0" fill="#c4b3af"/></svg>