<svg height="512pt" viewBox="0 0 512.00025 512" width="512pt" xmlns="http://www.w3.org/2000/svg"><g fill="#ffd400"><path d="m295.300781 17.699219c-.601562 7.800781-7.199219 13.5-14.699219 13.5h-1.5c-7.5-.597657-15.300781-1.199219-23.101562-1.199219s-15.601562.601562-23.101562 1.199219c-8.398438.601562-15.597657-5.097657-16.199219-13.5-.898438-8.097657 5.101562-15.597657 13.199219-16.5 8.699218-.898438 17.402343-1.199219 26.101562-1.199219s17.402344.300781 26.101562 1.199219c8.097657.902343 14.097657 8.402343 13.199219 16.5zm0 0"/><path d="m295.300781 494.300781c.898438 8.101563-5.101562 15.601563-13.199219 16.5-8.699218.902344-17.402343 1.199219-26.101562 1.199219s-17.402344-.296875-26.101562-1.199219c-8.097657-.898437-14.097657-8.398437-13.199219-16.5.601562-8.101562 7.800781-14.101562 16.199219-13.5 7.5.601563 15.300781 1.199219 23.101562 1.199219s15.601562-.597656 23.101562-1.199219c8.699219-.601562 15.597657 5.398438 16.199219 13.5zm0 0"/><path d="m101 67.117188c-4.847656-6.722657-3.308594-16.097657 3.414062-20.929688 14.335938-10.308594 29.378907-18.964844 45.089844-26.015625 7.601563-3.371094 16.433594.027344 19.816406 7.570313 3.386719 7.558593 0 16.4375-7.570312 19.820312-13.945312 6.21875-27.605469 14.179688-39.816406 22.96875-6.757813 4.855469-16.113282 3.289062-20.933594-3.414062zm0 0"/></g><path d="m341.679688 484.257812c-3.382813-7.5625 0-16.4375 7.574218-19.820312 13.941406-6.21875 27.601563-14.179688 39.8125-22.96875 6.753906-4.804688 16.097656-3.296875 20.933594 3.414062 4.847656 6.722657 3.308594 16.097657-3.414062 20.929688-14.335938 10.3125-29.378907 18.964844-45.085938 26.019531-7.75 3.417969-16.488281-.152343-19.820312-7.574219zm0 0" fill="#fdbf00"/><path d="m27.742188 170.320312c-7.558594-3.382812-10.953126-12.261718-7.570313-19.816406 6.980469-15.558594 15.648437-30.675781 26.015625-45.089844 4.820312-6.738281 14.195312-8.277343 20.933594-3.414062 6.722656 4.835938 8.261718 14.210938 3.410156 20.933594-8.855469 12.308594-16.8125 26.023437-22.96875 39.816406-3.335938 7.429688-12.078125 10.984375-19.820312 7.570312zm0 0" fill="#ffd400"/><path d="m443.882812 411c-6.726562-4.835938-8.265624-15.210938-3.414062-21.933594 8.855469-12.308594 16.816406-26.019531 22.96875-39.8125 3.398438-7.5625 13.230469-10.914062 20.820312-7.574218 7.558594 3.382812 10.957032 12.261718 7.570313 19.820312-6.980469 15.554688-16.648437 31.671875-27.015625 46.085938-4.816406 6.699218-14.167969 8.269531-20.929688 3.414062zm0 0" fill="#fdbf00"/><path d="m16.230469 295.507812c-7.601563 0-14.121094-5.757812-14.914063-13.476562-1.753906-17.382812-1.757812-34.652344 0-52.0625.851563-8.21875 7.898438-13.929688 16.453125-13.402344 8.230469.851563 14.238281 8.203125 13.402344 16.449219-1.5625 15.214844-1.5625 30.746094 0 45.96875.835937 8.246094-5.171875 15.601563-13.402344 16.449219-.511719.042968-1.042969.074218-1.539062.074218zm0 0" fill="#ffd400"/><path d="m495.769531 295.507812c-.496093 0-1.011719-.03125-1.539062-.074218-8.230469-.847656-14.238281-8.203125-13.402344-16.449219 1.5625-15.214844 1.5625-30.746094 0-45.96875-.835937-8.246094 5.171875-15.597656 13.402344-16.449219 8.367187-.527344 15.617187 5.1875 16.453125 13.402344 1.753906 17.382812 1.757812 34.652344 0 52.0625-.792969 7.71875-7.3125 13.476562-14.914063 13.476562zm0 0" fill="#fdbf00"/><path d="m46.1875 407.585938c-10.308594-14.335938-18.964844-30.378907-26.015625-46.085938-3.382813-7.5625.015625-16.4375 7.570313-19.820312 7.589843-3.339844 16.4375.015624 19.820312 7.574218 6.21875 13.941406 14.179688 27.601563 22.96875 39.8125 4.851562 6.722656 3.3125 17.097656-3.414062 21.933594-6.757813 4.855469-16.109376 3.285156-20.929688-3.414062zm0 0" fill="#ffd400"/><path d="m463.4375 162.75c-6.21875-13.945312-14.179688-27.605469-22.96875-39.816406-4.851562-6.722656-3.3125-16.097656 3.414062-20.933594 6.734376-4.816406 16.109376-3.308594 20.929688 3.414062 10.3125 14.335938 19.964844 29.378907 27.019531 45.089844 3.382813 7.558594-.015625 16.433594-7.574219 19.816406-7.75 3.417969-17.488281-.148437-20.820312-7.570312zm0 0" fill="#fdbf00"/><path d="m149.503906 491.828125c-15.558594-6.980469-30.675781-15.648437-45.089844-26.015625-6.722656-4.832031-8.261718-14.207031-3.414062-20.933594 4.804688-6.738281 14.179688-8.246094 20.933594-3.410156 12.308594 8.855469 26.023437 16.8125 39.816406 22.96875 7.570312 3.382812 10.957031 12.257812 7.570312 19.816406-3.335937 7.433594-12.078124 10.988282-19.816406 7.574219zm0 0" fill="#ffd400"/><path d="m389.066406 70.53125c-12.308594-8.855469-26.019531-16.816406-39.8125-22.96875-7.574218-3.382812-10.957031-12.261719-7.574218-19.820312 3.398437-7.542969 12.214843-10.941407 19.820312-7.570313 15.554688 6.980469 30.671875 15.648437 45.085938 26.015625 6.722656 4.832031 8.261718 14.207031 3.414062 20.933594-4.820312 6.695312-14.171875 8.269531-20.933594 3.410156zm0 0" fill="#fdbf00"/><path d="m256 60c-107.402344 0-196 88.597656-196 196 0 107.398438 88.597656 196 196 196s195-88.601562 195-196c0-107.402344-87.597656-196-195-196zm0 0" fill="#ffd400"/><path d="m279.101562 31.199219c-7.5-.597657-15.300781-1.199219-23.101562-1.199219v-30c8.699219 0 17.402344.300781 26.101562 1.199219 8.097657.902343 14.097657 8.402343 13.199219 16.5-.601562 7.800781-7.199219 13.5-14.699219 13.5zm0 0" fill="#fdbf00"/><path d="m295.300781 494.300781c.898438 8.101563-5.101562 15.601563-13.199219 16.5-8.699218.902344-17.402343 1.199219-26.101562 1.199219v-30c7.800781 0 15.601562-.597656 23.101562-1.199219 8.699219-.601562 15.597657 5.398438 16.199219 13.5zm0 0" fill="#fdbf00"/><path d="m451 256c0 107.398438-87.597656 196-195 196v-392c107.402344 0 195 88.597656 195 196zm0 0" fill="#fdbf00"/></svg>