<svg height="512pt" viewBox="0 -30 512 512" width="512pt" xmlns="http://www.w3.org/2000/svg"><path d="m445.902344 98.402344c-16.5-57.601563-69.601563-98.402344-129.902344-98.402344-21 0-41.398438 4.800781-60 14.097656-10.5 5.402344-20.699219 12.300782-29.699219 20.402344-49.199219-15-103.199219 10.199219-124.800781 55.5-55.800781 2.402344-101.5 49.601562-101.5 106 0 57.898438 48.101562 106 106 106h300c57.898438 0 106-48.101562 106-106 0-42.898438-26.800781-81.699219-66.097656-97.597656zm0 0" fill="#ede9e8"/><path d="m316 422c-8.289062 0-15-6.710938-15-15v-60c0-8.289062 6.710938-15 15-15s15 6.710938 15 15v60c0 8.289062-6.710938 15-15 15zm0 0" fill="#25d9f8"/><path d="m376 452c-8.289062 0-15-6.710938-15-15v-60c0-8.289062 6.710938-15 15-15s15 6.710938 15 15v60c0 8.289062-6.710938 15-15 15zm0 0" fill="#25d9f8"/><g fill="#76e2f8"><path d="m271 377v60c0 8.398438-6.597656 15-15 15s-15-6.601562-15-15v-60c0-8.402344 6.597656-15 15-15s15 6.597656 15 15zm0 0"/><path d="m196 422c-8.289062 0-15-6.710938-15-15v-60c0-8.289062 6.710938-15 15-15s15 6.710938 15 15v60c0 8.289062-6.710938 15-15 15zm0 0"/><path d="m136 452c-8.289062 0-15-6.710938-15-15v-60c0-8.289062 6.710938-15 15-15s15 6.710938 15 15v60c0 8.289062-6.710938 15-15 15zm0 0"/><path d="m76 422c-8.289062 0-15-6.710938-15-15v-60c0-8.289062 6.710938-15 15-15s15 6.710938 15 15v60c0 8.289062-6.710938 15-15 15zm0 0"/></g><path d="m436 422c-8.289062 0-15-6.710938-15-15v-60c0-8.289062 6.710938-15 15-15s15 6.710938 15 15v60c0 8.289062-6.710938 15-15 15zm0 0" fill="#25d9f8"/><path d="m512 196c0 57.898438-48.101562 106-106 106h-150v-287.902344c18.601562-9.296875 39-14.097656 60-14.097656 60.300781 0 113.402344 40.800781 129.902344 98.402344 39.296875 15.898437 66.097656 54.699218 66.097656 97.597656zm0 0" fill="#dfd7d5"/><path d="m271 377v60c0 8.398438-6.597656 15-15 15v-90c8.402344 0 15 6.597656 15 15zm0 0" fill="#25d9f8"/></svg>