<svg height="512pt" viewBox="0 0 512 512" width="512pt" xmlns="http://www.w3.org/2000/svg"><path d="m447.5 326.5-30 30c-2.699219 3-6.601562 4.5-10.5 4.5s-7.800781-1.5-10.5-4.5l-30-30c-6-5.699219-6-15.300781 0-21 5.699219-6 15.300781-6 21 0l19.5 19.199219 19.503906-19.199219c5.699219-6 15.296875-6 20.996094 0 6 5.699219 6 15.300781 0 21zm0 0" fill="#ff9ac9"/><path d="m447.5 326.5-30 30c-2.699219 3-6.601562 4.5-10.5 4.5v-36.300781l19.5-19.199219c5.699219-6 15.300781-6 21 0 6 5.699219 6 15.300781 0 21zm0 0" fill="#ff7cb9"/><path d="m512 436c0 25.800781-9.601562 51.699219-26.699219 70.898438h-156.601562c-17.097657-19.199219-26.699219-45.097657-26.699219-70.898438 0-57.898438 47.101562-105 105-105s105 47.101562 105 105zm0 0" fill="#70da40"/><path d="m512 436c0 25.800781-9.601562 51.699219-26.699219 70.898438h-78.300781v-175.898438c57.898438 0 105 47.101562 105 105zm0 0" fill="#49a520"/><path d="m452 436c0 23.699219-3 47.5-8.402344 65.199219h-73.195312c-5.402344-17.699219-8.402344-41.5-8.402344-65.199219 0-52.199219 13.800781-105 45-105s45 52.800781 45 105zm0 0" fill="#90e36a"/><path d="m452 436c0 23.699219-3 47.5-8.402344 65.199219h-36.597656v-170.199219c31.199219 0 45 52.800781 45 105zm0 0" fill="#56c225"/><path d="m60 331c-33.089844 0-60-26.910156-60-60v-90c0-16.539062 13.460938-30 30-30s30 13.460938 30 30v90h91v60zm0 0" fill="#70da40"/><path d="m332 301c33.089844 0 60-26.910156 60-60v-120c0-16.539062-13.460938-30-30-30s-30 13.460938-30 30v120h-91v60zm0 0" fill="#49a520"/><path d="m271 75v422h-150v-422c0-41.398438 33.601562-75 75-75s75 33.601562 75 75zm0 0" fill="#90e36a"/><path d="m271 75v422h-75v-497c41.398438 0 75 33.601562 75 75zm0 0" fill="#56c225"/><path d="m512 497c0 8.398438-6.597656 15-15 15h-482c-8.402344 0-15-6.601562-15-15 0-8.402344 6.597656-15 15-15h482c8.402344 0 15 6.597656 15 15zm0 0" fill="#ff9f00"/><g fill="#70da40"><path d="m211 75v31c0 8.398438-6.597656 15-15 15s-15-6.601562-15-15v-31c0-8.402344 6.597656-15 15-15s15 6.597656 15 15zm0 0"/><path d="m211 166v30c0 8.398438-6.597656 15-15 15s-15-6.601562-15-15v-30c0-8.402344 6.597656-15 15-15s15 6.597656 15 15zm0 0"/><path d="m211 256v30c0 8.398438-6.597656 15-15 15s-15-6.601562-15-15v-30c0-8.402344 6.597656-15 15-15s15 6.597656 15 15zm0 0"/><path d="m211 346v30c0 8.398438-6.597656 15-15 15s-15-6.601562-15-15v-30c0-8.402344 6.597656-15 15-15s15 6.597656 15 15zm0 0"/><path d="m211 436v31c0 8.398438-6.597656 15-15 15s-15-6.601562-15-15v-31c0-8.402344 6.597656-15 15-15s15 6.597656 15 15zm0 0"/></g><path d="m211 75v31c0 8.398438-6.597656 15-15 15v-61c8.402344 0 15 6.597656 15 15zm0 0" fill="#49a520"/><path d="m211 166v30c0 8.398438-6.597656 15-15 15v-60c8.402344 0 15 6.597656 15 15zm0 0" fill="#49a520"/><path d="m211 256v30c0 8.398438-6.597656 15-15 15v-60c8.402344 0 15 6.597656 15 15zm0 0" fill="#49a520"/><path d="m211 346v30c0 8.398438-6.597656 15-15 15v-60c8.402344 0 15 6.597656 15 15zm0 0" fill="#49a520"/><path d="m211 436v31c0 8.398438-6.597656 15-15 15v-61c8.402344 0 15 6.597656 15 15zm0 0" fill="#49a520"/></svg>