<svg height="512pt" viewBox="-31 0 512 512" width="512pt" xmlns="http://www.w3.org/2000/svg"><path d="m420 301v121l30 30v45c0 8.398438-6.597656 15-15 15h-420c-8.402344 0-15-6.601562-15-15v-45l30-30v-121l-30-30v-105c0-8.402344 6.597656-15 15-15 24.902344 0 45-20.101562 45-45v-91c0-8.402344 6.597656-15 15-15h75l30 45h90l30-45h75c8.402344 0 15 6.597656 15 15v91c0 24.898438 20.097656 45 45 45 8.402344 0 15 6.597656 15 15v105zm0 0" fill="#c6715a"/><path d="m420 301v121l30 30v45c0 8.398438-6.597656 15-15 15h-210v-467h45l30-45h75c8.402344 0 15 6.597656 15 15v91c0 24.898438 20.097656 45 45 45 8.402344 0 15 6.597656 15 15v105zm0 0" fill="#99503d"/><path d="m300 0v106c0 41.398438-33.601562 75-75 75s-75-33.601562-75-75v-106zm0 0" fill="#68544f"/><path d="m375 241h-30c-8.289062 0-15-6.710938-15-15s6.710938-15 15-15h30c8.289062 0 15 6.710938 15 15s-6.710938 15-15 15zm0 0" fill="#3e322e"/><path d="m105 241h-30c-8.289062 0-15-6.710938-15-15s6.710938-15 15-15h30c8.289062 0 15 6.710938 15 15s-6.710938 15-15 15zm0 0" fill="#53433f"/><path d="m0 325.277344v126.722656h135c8.285156 0 15-6.714844 15-15v-111.730469zm0 0" fill="#53433f"/><path d="m135 271h-135v54.277344l68.289062 34.140625c2.109376 1.054687 4.410157 1.582031 6.710938 1.582031s4.601562-.527344 6.710938-1.582031l68.289062-34.148438v-39.269531c0-8.285156-6.714844-15-15-15zm0 0" fill="#725d57"/><path d="m381.710938 329.417969h-13.421876l-68.289062-4.144531v111.726562c0 8.289062 6.710938 15 15 15h135v-126.730469zm0 0" fill="#3e322e"/><path d="m300 0v106c0 41.398438-33.601562 75-75 75v-181zm0 0" fill="#53433f"/><path d="m315 271c-8.289062 0-15 6.710938-15 15v39.273438l68.289062 34.144531c2.109376 1.054687 4.410157 1.582031 6.710938 1.582031s4.601562-.527344 6.710938-1.582031l68.289062-34.148438v-54.269531zm0 0" fill="#68544f"/></svg>