<svg height="512pt" viewBox="0 0 512 512.00025" width="512pt" xmlns="http://www.w3.org/2000/svg"><path d="m286 346 45 30 15-30c91.128906 0 166-73.871094 166-165v-45c0-8.285156-6.714844-15-15-15-115.980469 0-211 94.019531-211 210zm0 0" fill="#ff7cb9"/><path d="m368.5 512c45.5625 0 82.5-37.9375 82.5-83.5s-36.9375-82.5-82.5-82.5h-82.5v82.5c0 45.5625 36.9375 83.5 82.5 83.5zm0 0" fill="#ff5ca8"/><path d="m361 256c0-24.8125 20.1875-45 45-45s45 20.1875 45 45-20.1875 45-45 45-45-20.1875-45-45zm0 0" fill="#53433f"/><path d="m406 271c-8.269531 0-15-6.730469-15-15s6.730469-15 15-15 15 6.730469 15 15-6.730469 15-15 15zm0 0" fill="#dfd7d5"/><path d="m346 301c15.851562 0 31.085938-3.441406 45.277344-10.238281 7.472656-3.589844 10.636718-12.539063 7.0625-20.011719-3.574219-7.46875-12.539063-10.617188-20.011719-7.058594-10.121094 4.847656-21.003906 7.308594-32.328125 7.308594-8.289062 0-15 6.710938-15 15 0 8.292969 6.710938 15 15 15zm0 0" fill="#53433f"/><path d="m427.210938 249.804688c5.597656 0 10.972656-3.136719 13.550781-8.527344 6.796875-14.191406 10.238281-29.425782 10.238281-45.277344 0-8.289062-6.707031-15-15-15-8.289062 0-15 6.710938-15 15 0 11.324219-2.460938 22.207031-7.308594 32.328125-3.574218 7.472656-.410156 16.421875 7.058594 20.011719 2.082031.996094 4.292969 1.464844 6.460938 1.464844zm0 0" fill="#53433f"/><path d="m376 421c0 8.285156-6.714844 15-15 15s-15-6.714844-15-15 6.714844-15 15-15 15 6.714844 15 15zm0 0" fill="#53433f"/><path d="m226 346-45 30-15-30c-91.125 0-166-73.871094-166-165v-45c0-8.285156 6.714844-15 15-15 115.980469 0 211 94.019531 211 210zm0 0" fill="#ff9ac9"/><path d="m143.5 512c-45.5625 0-82.5-37.9375-82.5-83.5s36.9375-82.5 82.5-82.5h82.5v82.5c0 45.5625-36.9375 83.5-82.5 83.5zm0 0" fill="#ff7cb9"/><path d="m256 241c-24.902344 0-45 20.097656-45 45 0 24.898438 20.097656 45 45 45s45-20.101562 45-45c0-24.902344-20.097656-45-45-45zm0 0" fill="#68544f"/><path d="m356.5 25.5c-55.199219 55.199219-85.5 129.699219-85.5 207.699219v22.800781c0 8.398438-6.597656 15-15 15s-15-6.601562-15-15v-22.800781c0-77.996094-30.300781-152.5-85.5-207.699219-6-5.699219-6-15.300781 0-21 5.699219-6 15.300781-6 21 0 37.199219 37.199219 64.199219 82.898438 79.5 131.5 15.300781-48.601562 42.300781-94.300781 79.5-131.5 5.699219-6 15.300781-6 21 0 6 5.699219 6 15.300781 0 21zm0 0" fill="#725d57"/><path d="m106 301c-24.8125 0-45-20.1875-45-45s20.1875-45 45-45 45 20.1875 45 45-20.1875 45-45 45zm0 0" fill="#68544f"/><path d="m106 271c-8.269531 0-15-6.730469-15-15s6.730469-15 15-15 15 6.730469 15 15-6.730469 15-15 15zm0 0" fill="#ede9e8"/><g fill="#68544f"><path d="m166 301c-15.851562 0-31.082031-3.441406-45.277344-10.238281-7.472656-3.589844-10.636718-12.539063-7.0625-20.011719 3.574219-7.46875 12.539063-10.617188 20.011719-7.058594 10.121094 4.847656 21.003906 7.308594 32.328125 7.308594 8.292969 0 15 6.710938 15 15 0 8.292969-6.707031 15-15 15zm0 0"/><path d="m84.789062 249.804688c-5.597656 0-10.972656-3.136719-13.550781-8.527344-6.796875-14.191406-10.238281-29.425782-10.238281-45.277344 0-8.289062 6.710938-15 15-15 8.292969 0 15 6.710938 15 15 0 11.324219 2.460938 22.207031 7.308594 32.328125 3.574218 7.472656.410156 16.421875-7.058594 20.011719-2.082031.996094-4.292969 1.464844-6.460938 1.464844zm0 0"/><path d="m166 421c0 8.285156-6.714844 15-15 15s-15-6.714844-15-15 6.714844-15 15-15 15 6.714844 15 15zm0 0"/><path d="m356.5 25.5c-55.199219 55.199219-85.5 129.699219-85.5 207.699219v22.800781c0 8.398438-6.597656 15-15 15v-135c15.300781-48.601562 42.300781-94.300781 79.5-131.5 5.699219-6 15.300781-6 21 0 6 5.699219 6 15.300781 0 21zm0 0"/></g><path d="m301 286c0 24.898438-20.097656 45-45 45v-90c24.902344 0 45 20.097656 45 45zm0 0" fill="#53433f"/><path d="m257.800781 301h-3.601562c-24 0-43.199219 19.199219-43.199219 43.199219v63.601562c0 24 19.199219 43.199219 43.199219 43.199219h3.601562c24 0 43.199219-19.199219 43.199219-43.199219v-63.601562c0-24-19.199219-43.199219-43.199219-43.199219zm0 0" fill="#725d57"/><path d="m301 344.199219v63.601562c0 24-19.199219 43.199219-43.199219 43.199219h-1.800781v-150h1.800781c24 0 43.199219 19.199219 43.199219 43.199219zm0 0" fill="#53433f"/></svg>