<svg height="512pt" viewBox="-31 0 512 512.0011" width="512pt" xmlns="http://www.w3.org/2000/svg"><path d="m210.046875 330.960938h30.007813v151.035156h-30.007813zm0 0" fill="#b35f49"/><path d="m225.050781 330.960938h15.003907v151.035156h-15.003907zm0 0" fill="#99503d"/><path d="m390.089844 405.976562c0 38.410157-21.007813 72.71875-51.914063 91.019532h-226.25c-30.90625-18.300782-51.910156-52.609375-51.910156-91.019532 0-8.402343 6.597656-15.003906 15-15.003906h60.015625c38.410156 0 71.714844 21.007813 90.019531 51.910156 18.304688-30.902343 51.609375-51.910156 90.019531-51.910156h60.015626c8.402343 0 15.003906 6.601563 15.003906 15.003906zm0 0" fill="#70da40"/><path d="m390.089844 405.976562c0 38.410157-21.007813 72.71875-51.914063 91.019532h-113.125v-54.113282c18.304688-30.902343 51.609375-51.910156 90.019531-51.910156h60.015626c8.402343 0 15.003906 6.601563 15.003906 15.003906zm0 0" fill="#56c225"/><path d="m404.492188 195.03125c-1.503907-1.800781-3.300782-3.300781-5.101563-5.101562 1.800781-1.800782 3.601563-3.300782 5.101563-5.101563 9.902343-12.902344 13.203124-29.40625 8.699218-46.210937-4.199218-15.300782-15-27.90625-30.003906-33.90625-2.402344-.898438-4.804688-1.5-7.203125-2.101563.898437-2.101563 1.5-4.5 1.800781-6.898437 2.097656-16.203126-3-31.808594-15.304687-44.109376-11.402344-11.402343-27.003907-16.808593-43.207031-14.40625-2.402344.300782-4.503907.902344-6.902344 1.800782-.601563-2.398438-1.199219-4.800782-2.101563-7.199219-6-15.003906-18.605469-25.507813-35.105469-30.007813-15.605468-4.203124-31.808593-.898437-45.011718 9-1.800782 1.503907-3.300782 3.304688-5.101563 5.105469-1.800781-1.800781-3.300781-3.601562-5.097656-5.105469-12.902344-9.898437-29.410156-13.203124-45.914063-8.699218-15.601562 4.199218-28.203124 14.703125-34.207031 29.707031-.898437 2.402344-1.5 4.800781-2.097656 7.199219-2.402344-.898438-4.5-1.5-6.902344-1.796875-16.203125-2.101563-31.808593 3-44.109375 15.300781-11.402344 11.402344-16.503906 27.007812-14.402344 43.210938.296876 2.402343.898438 4.5 1.800782 6.898437-2.402344.601563-4.800782 1.203125-7.203125 2.101563-15.003907 6.003906-25.804688 18.605468-30.308594 35.109374-4.199219 15.601563-.898437 32.105469 9.003906 45.007813 1.5 1.804687 3.300781 3.300781 5.101563 5.101563-1.800782 1.800781-3.601563 3.300781-5.101563 5.101562-9.902343 12.902344-13.203125 29.40625-8.703125 45.910156 4.203125 15.601563 15.003906 28.207032 30.007813 34.207032 2.402343.902343 4.800781 1.5 6.902343 2.101562-.601562 2.402344-1.203124 4.5-1.5 6.902344-2.101562 16.203125 3 32.808594 15.300782 45.109375 9.601562 9.601562 22.507812 15.003906 36.007812 15.003906 2.402344 0 4.804688-.300781 7.203125-.601563 2.402344-.300781 4.5-.898437 6.902344-1.800781.597656 2.402344 1.199219 4.800781 2.097656 7.203125 6.003907 15 18.605469 25.804688 35.109375 30.304688 4.5 1.203125 9.003906 1.800781 13.203125 1.800781 11.402344 0 22.503907-3.601563 31.808594-10.800781 1.800781-1.503906 3.300781-3.300782 5.097656-5.101563 1.800781 1.800781 3.300781 3.601563 5.101563 5.101563 9.300781 6.898437 20.105468 10.800781 31.507812 10.800781 4.800782 0 9.601563-.597656 14.703125-2.101563 15.304688-4.199218 27.90625-15.003906 33.910157-30.003906.898437-2.402344 1.5-4.800781 2.097656-7.203125 2.101562.902344 4.5 1.5 6.902344 1.800781 2.398437.300782 4.800781.601563 6.898437.601563 13.804687 0 26.707031-5.402344 37.210937-15.90625 11.402344-11.398437 16.503907-28.003906 14.402344-44.207031-.296875-2.402344-.898437-4.503906-1.800781-6.902344 2.402344-.601562 4.800781-1.199219 7.203125-2.101562 15.003906-6 25.804688-18.605469 30.308594-35.105469 4.199218-15.609375.898437-32.109375-9.003906-45.011719zm0 0" fill="#fdbf00"/><path d="m413.496094 240.039062c-4.503906 16.503907-15.304688 29.109376-30.308594 35.109376-2.402344.898437-4.800781 1.5-7.203125 2.097656.902344 2.402344 1.503906 4.503906 1.800781 6.902344 2.101563 16.203124-3 32.808593-14.402344 44.210937-10.503906 10.5-23.40625 15.902344-37.210937 15.902344-2.097656 0-4.5-.300781-6.898437-.601563-2.402344-.300781-4.800782-.898437-6.902344-1.800781-.597656 2.402344-1.199219 4.804687-2.097656 7.203125-6.003907 15.003906-18.605469 25.808594-33.910157 30.007812-5.101562 1.5-9.902343 2.097657-14.703125 2.097657-11.402344 0-22.207031-3.898438-31.507812-10.800781-1.800782-1.5-3.300782-3.300782-5.101563-5.101563v-349.378906c1.800781-1.796875 3.300781-3.597657 5.101563-5.101563 13.203125-9.898437 29.40625-13.203125 45.011718-9 16.503907 4.5 29.105469 15.003906 35.105469 30.007813.902344 2.398437 1.503907 4.800781 2.101563 7.199219 2.398437-.898438 4.5-1.5 6.902344-1.800782 16.203124-2.402344 31.804687 3.003906 43.207031 14.40625 12.304687 12.300782 17.40625 27.90625 15.304687 44.109375-.300781 2.398438-.902344 4.796875-1.800781 6.898438 2.398437.601562 4.800781 1.203125 7.203125 2.101562 15.003906 6 25.804688 18.605469 30.003906 33.90625 4.503906 16.804688 1.203125 33.308594-8.699218 46.210938-1.503907 1.800781-3.300782 3.300781-5.101563 5.101562 1.800781 1.800781 3.601563 3.300781 5.101563 5.101563 9.902343 12.90625 13.203124 29.40625 9.003906 45.011718zm0 0" fill="#ff9f00"/><path d="m225.050781 84.90625c-57.914062 0-105.023437 47.109375-105.023437 105.023438 0 57.910156 47.109375 105.023437 105.023437 105.023437 57.914063 0 105.023438-47.113281 105.023438-105.023437 0-57.914063-47.109375-105.023438-105.023438-105.023438zm0 0" fill="#99503d"/><path d="m330.074219 189.929688c0 57.910156-47.109375 105.023437-105.023438 105.023437v-210.046875c57.914063 0 105.023438 47.109375 105.023438 105.023438zm0 0" fill="#804231"/><path d="m450.101562 496.996094c0 8.402344-6.601562 15.003906-15.003906 15.003906h-420.09375c-8.402344 0-15.003906-6.601562-15.003906-15.003906s6.601562-15 15.003906-15h420.09375c8.402344 0 15.003906 6.597656 15.003906 15zm0 0" fill="#b35f49"/><path d="m450.101562 496.996094c0 8.402344-6.601562 15.003906-15.003906 15.003906h-210.046875v-30.003906h210.046875c8.402344 0 15.003906 6.597656 15.003906 15zm0 0" fill="#99503d"/></svg>