<svg height="512pt" viewBox="0 0 512 512" width="512pt" xmlns="http://www.w3.org/2000/svg"><path d="m461.199219 262.898438c-35.398438 35.402343-50.699219 86.101562-41.101563 135.601562l5.703125 27.300781-27.300781-5.703125c-9.902344-1.796875-19.800781-2.699218-29.699219-2.699218-39.902343 0-77.703125 15.601562-105.902343 43.800781l-6.898438 6.902343-6.898438-6.902343c-28.199218-28.199219-66-43.800781-105.902343-43.800781-9.898438 0-19.796875.902343-29.699219 2.699218l-27.300781 5.703125 5.703125-27.300781c9.597656-49.5-5.703125-100.199219-41.101563-135.601562l-6.902343-6.898438 6.902343-6.902344c35.398438-35.398437 50.699219-86.097656 41.101563-135.597656l-5.703125-27.300781 27.300781 5.699219c9.902344 1.800781 19.800781 2.703124 29.699219 2.703124 39.902343 0 77.703125-15.601562 105.902343-43.800781l6.898438-6.902343 6.898438 6.902343c28.199218 28.199219 66 43.800781 105.902343 43.800781 9.898438 0 19.796875-.902343 29.699219-2.703124l27.300781-5.699219-5.703125 27.300781c-9.597656 49.5 5.703125 100.199219 41.101563 135.597656l6.902343 6.902344zm0 0" fill="#d2c5c2"/><path d="m461.199219 262.898438c-35.398438 35.402343-50.699219 86.101562-41.101563 135.601562l5.703125 27.300781-27.300781-5.703125c-9.902344-1.796875-19.800781-2.699218-29.699219-2.699218-39.902343 0-77.703125 15.601562-105.902343 43.800781l-6.898438 6.902343v-424.203124l6.898438 6.902343c28.199218 28.199219 66 43.800781 105.902343 43.800781 9.898438 0 19.796875-.902343 29.699219-2.703124l27.300781-5.699219-5.703125 27.300781c-9.597656 49.5 5.703125 100.199219 41.101563 135.597656l6.902343 6.902344zm0 0" fill="#c4b3af"/><path d="m497 241h-22.597656l-2.402344-2.402344c-32.101562-32.097656-45.902344-77.699218-37.199219-122.097656l4.796875-22.800781 18-18c5.703125-6 5.703125-15.300781 0-21.300781-5.996094-5.699219-15.296875-5.699219-21.296875 0l-18 18-22.800781 4.800781c-44.398438 8.699219-90-5.097657-122.097656-36.898438l-2.402344-2.703125v-22.597656c0-8.402344-6.597656-15-15-15s-15 6.597656-15 15v22.597656l-2.402344 2.402344c-32.097656 32.101562-77.699218 45.898438-122.097656 37.199219l-22.800781-4.800781-18-18c-6-5.699219-15.300781-5.699219-21.296875 0-5.703125 6-5.703125 15.300781 0 21.300781l17.996094 18 4.800781 22.800781c8.699219 44.398438-5.097657 90-36.898438 122.097656l-2.703125 2.402344h-22.597656c-8.402344 0-15 6.597656-15 15 0 8.398438 6.597656 15 15 15h22.597656l2.402344 2.398438c32.101562 32.101562 45.902344 77.703124 37.199219 122.101562l-4.796875 22.800781-18 18c-5.703125 6-5.703125 15.296875 0 21.296875 5.996094 5.703125 15.296875 5.703125 21.296875 0l18-17.996094 22.800781-4.800781c44.398438-8.699219 90 5.097657 122.097656 36.898438l2.402344 2.699219v22.601562c0 8.398438 6.597656 15 15 15s15-6.601562 15-15v-22.601562l2.402344-2.398438c32.097656-32.101562 77.699218-45.902344 122.097656-37.203125l22.800781 4.800781 18 18c6 5.699219 15.300781 5.699219 21.296875 0 5.703125-6 5.703125-15.300781 0-21.296875l-17.996094-18-4.800781-22.800781c-8.699219-44.398438 5.097657-90 36.898438-122.101562l2.703125-2.398438h22.597656c8.402344 0 15-6.601562 15-15 0-8.402344-6.597656-15-15-15zm-387.699219-110.699219 29.398438 29.699219c-2.398438 28.5-11.398438 56.101562-25.800781 81h-35.398438c23.402344-31.800781 34.800781-71.101562 31.800781-110.699219zm0 251.398438c3-39.597657-8.398437-78.898438-31.800781-110.699219h35.398438c14.402343 24.898438 23.402343 52.5 25.800781 81zm131.699219 53.699219c-28.5-21.300782-62.402344-33-97.800781-33-4.5 0-9 .902343-13.5 1.199218l30.300781-30.296875c28.5 2.398438 56.398438 11.398438 81 25.796875zm-21.300781-164.398438-54.300781 54.601562c-3.898438-18.902343-9.898438-37.203124-18.300782-54.601562zm-72.597657-30c8.398438-17.402344 14.398438-35.699219 18.296876-54.601562l54.300781 54.601562zm93.898438 123.898438c-17.402344-8.398438-35.699219-14.398438-54.601562-18.300782l54.601562-54.296875zm0-145.199219-54.601562-54.300781c18.902343-3.898438 37.203124-9.902344 54.601562-18.300782zm0-106.800781c-24.601562 14.398437-52.5 23.402343-81 25.800781l-29.699219-29.398438c39.597657 3 78.898438-8.402343 110.699219-31.800781zm30-35.398438c31.800781 23.398438 71.101562 34.800781 110.699219 31.800781l-29.699219 29.398438c-28.5-2.398438-56.398438-11.398438-81-25.800781zm21.300781 163.5 54.300781-54.601562c3.898438 18.902343 9.898438 37.203124 18.300782 54.601562zm72.597657 30c-8.398438 17.398438-14.398438 35.699219-18.296876 54.601562l-54.300781-54.601562zm-93.898438-123.898438c17.402344 8.398438 35.699219 14.398438 54.601562 18.296876l-54.601562 54.300781zm0 145.199219 54.601562 54.296875c-18.902343 3.902344-37.203124 9.902344-54.601562 18.300782zm0 142.199219v-35.402344c24.601562-14.398437 52.5-23.398437 81-25.800781l29.699219 29.402344c-39.597657-3-78.898438 8.398437-110.699219 31.800781zm131.699219-52.800781-29.398438-29.699219c2.398438-28.5 11.398438-56.101562 25.800781-81h35.398438c-23.402344 31.800781-34.800781 71.101562-31.800781 110.699219zm-3.597657-140.699219c-14.402343-24.902344-23.402343-52.5-25.800781-81l29.398438-29.699219c-3 39.597657 8.402343 78.898438 31.800781 110.699219zm0 0" fill="#ede9e8"/><path d="m497 241h-22.597656l-2.402344-2.402344c-32.101562-32.097656-45.902344-77.699218-37.199219-122.097656l4.796875-22.800781 18-18c5.703125-6 5.703125-15.300781 0-21.300781-5.996094-5.699219-15.296875-5.699219-21.296875 0l-18 18-22.800781 4.800781c-44.398438 8.699219-90-5.097657-122.097656-36.898438l-2.402344-2.703125v-22.597656c0-8.402344-6.597656-15-15-15v512c8.402344 0 15-6.601562 15-15v-22.601562l2.402344-2.398438c32.097656-32.101562 77.699218-45.902344 122.097656-37.203125l22.800781 4.800781 18 18c6 5.699219 15.300781 5.699219 21.296875 0 5.703125-6 5.703125-15.300781 0-21.296875l-17.996094-18-4.800781-22.800781c-8.699219-44.398438 5.097657-90 36.898438-122.101562l2.703125-2.398438h22.597656c8.402344 0 15-6.601562 15-15 0-8.402344-6.597656-15-15-15zm-226-163.5c31.800781 23.398438 71.101562 34.800781 110.699219 31.800781l-29.699219 29.398438c-28.5-2.398438-56.398438-11.398438-81-25.800781zm21.300781 163.5 54.300781-54.601562c3.898438 18.902343 9.898438 37.203124 18.300782 54.601562zm72.597657 30c-8.398438 17.398438-14.398438 35.699219-18.296876 54.601562l-54.300781-54.601562zm-93.898438-123.898438c17.402344 8.398438 35.699219 14.398438 54.601562 18.296876l-54.601562 54.300781zm0 145.199219 54.601562 54.296875c-18.902343 3.902344-37.203124 9.902344-54.601562 18.300782zm0 142.199219v-35.402344c24.601562-14.398437 52.5-23.398437 81-25.800781l29.699219 29.402344c-39.597657-3-78.898438 8.398437-110.699219 31.800781zm131.699219-52.800781-29.398438-29.699219c2.398438-28.5 11.398438-56.101562 25.800781-81h35.398438c-23.402344 31.800781-34.800781 71.101562-31.800781 110.699219zm-3.597657-140.699219c-14.402343-24.902344-23.402343-52.5-25.800781-81l29.398438-29.699219c-3 39.597657 8.402343 78.898438 31.800781 110.699219zm0 0" fill="#dfd7d5"/></svg>