<svg height="512pt" viewBox="-31 0 512 512" width="512pt" xmlns="http://www.w3.org/2000/svg"><path d="m240 15v60c0 8.398438-6.597656 15-15 15s-15-6.601562-15-15v-60c0-8.402344 6.597656-15 15-15s15 6.597656 15 15zm0 0" fill="#68544f"/><path d="m225 90v-90c8.402344 0 15 6.597656 15 15v60c0 8.398438-6.597656 15-15 15zm0 0" fill="#3e322e"/><path d="m450 286c0-20.699219-14.097656-38.101562-33.300781-43.5 2.101562-5.097656 3.300781-10.800781 3.300781-16.5 0-20.699219-14.097656-38.101562-33.300781-43.5 2.101562-5.097656 3.300781-10.800781 3.300781-16.5 0-20.699219-14.097656-39.101562-33.300781-44.5 2.101562-5.097656 3.300781-10.800781 3.300781-16.5 0-24.902344-20.097656-45-45-45h-180c-24.902344 0-45 20.097656-45 45 0 5.699219 1.199219 11.398438 3.300781 16.5-19.199219 5.398438-33.300781 23.800781-33.300781 44.5 0 5.699219 1.199219 11.398438 3.300781 16.5-19.199219 5.398438-33.300781 22.800781-33.300781 43.5 0 5.699219 1.199219 11.398438 3.300781 16.5-19.199219 5.398438-33.300781 22.800781-33.300781 43.5s14.097656 38.097656 33.300781 43.5c-2.101562 5.097656-3.300781 10.800781-3.300781 16.5 0 20.699219 14.097656 38.097656 33.300781 43.5-2.101562 5.097656-3.300781 10.800781-3.300781 16.5 0 20.699219 14.097656 39.097656 33.300781 44.5-2.101562 5.097656-3.300781 10.800781-3.300781 16.5 0 24.898438 20.097656 45 45 45h180c24.902344 0 45-20.101562 45-45 0-5.699219-1.199219-11.398438-3.300781-16.5 19.199219-5.402344 33.300781-23.800781 33.300781-44.5 0-5.699219-1.199219-11.398438-3.300781-16.5 19.199219-5.402344 33.300781-22.800781 33.300781-43.5 0-5.699219-1.199219-11.398438-3.300781-16.5 19.203125-5.402344 33.300781-22.800781 33.300781-43.5zm0 0" fill="#ffd400"/><path d="m450 286c0 20.699219-14.097656 38.097656-33.300781 43.5 2.101562 5.097656 3.300781 10.800781 3.300781 16.5 0 20.699219-14.097656 38.097656-33.300781 43.5 2.101562 5.097656 3.300781 10.800781 3.300781 16.5 0 20.699219-14.097656 39.097656-33.300781 44.5 2.101562 5.097656 3.300781 10.800781 3.300781 16.5 0 24.898438-20.097656 45-45 45h-90v-452h90c24.902344 0 45 20.097656 45 45 0 5.699219-1.199219 11.398438-3.300781 16.5 19.199219 5.398438 33.300781 23.800781 33.300781 44.5 0 5.699219-1.199219 11.398438-3.300781 16.5 19.199219 5.398438 33.300781 22.800781 33.300781 43.5 0 5.699219-1.199219 11.398438-3.300781 16.5 19.203125 5.398438 33.300781 22.800781 33.300781 43.5zm0 0" fill="#ff9f00"/><path d="m450 15c0 8.398438-6.597656 15-15 15h-420c-8.402344 0-15-6.601562-15-15 0-8.402344 6.597656-15 15-15h420c8.402344 0 15 6.597656 15 15zm0 0" fill="#b35f49"/><path d="m435 30h-210v-30h210c8.402344 0 15 6.597656 15 15 0 8.398438-6.597656 15-15 15zm0 0" fill="#99503d"/><path d="m225 211c-41.398438 0-75 33.601562-75 75s33.601562 75 75 75 75-33.601562 75-75-33.601562-75-75-75zm0 0" fill="#68544f"/><path d="m300 286c0 41.398438-33.601562 75-75 75v-150c41.398438 0 75 33.601562 75 75zm0 0" fill="#3e322e"/></svg>