<svg height="511pt" viewBox="0 0 511 511.99875" width="511pt" xmlns="http://www.w3.org/2000/svg"><path d="m73.550781 511.695312c-8.113281-1.625-13.386719-9.519531-11.761719-17.648437l29.996094-150.984375c.777344-3.898438 3.078125-7.324219 6.386719-9.535156l63.714844-42.476563c6.898437-4.601562 16.214843-2.726562 20.800781 4.160157 4.597656 6.898437 2.738281 16.199218-4.160156 20.796874l-58.542969 39.035157-28.78125 144.890625c-1.640625 8.238281-9.703125 13.398437-17.652344 11.761718zm0 0" fill="#68544f"/><path d="m6.507812 387.996094c-6.636718-4.964844-7.980468-14.367188-3.003906-20.988282l90.992188-119.988281c2.066406-2.769531 5.011718-4.714843 8.363281-5.550781l65.003906-16.257812c8.027344-2.007813 16.171875 2.855468 18.179688 10.910156 2.019531 8.027344-2.871094 16.171875-10.914063 18.175781l-59.832031 14.972656-87.800781 115.726563c-4.945313 6.621094-14.34375 7.984375-20.988282 3zm0 0" fill="#68544f"/><g fill="#725d57"><path d="m199.605469 172.054688c-1.566407 0-3.164063-.25-4.746094-.777344l-63.113281-21.03125c-7.425782-2.476563-11.703125-10.253906-9.800782-17.855469l29.996094-120.988281c2.007813-8.054688 10.109375-13.035156 18.179688-10.910156 8.039062 2.003906 12.933594 10.148437 10.910156 18.175781l-26.628906 107.511719 49.949218 16.652343c7.851563 2.609375 12.097657 11.105469 9.476563 18.96875-2.09375 6.285157-7.941406 10.253907-14.222656 10.253907zm0 0"/><path d="m197.6875 211.015625h-31.199219c-1.609375 0-3.207031-.261719-4.746093-.773437l-89.992188-30c-4.480469-1.476563-7.996094-4.992188-9.476562-9.476563l-29.996094-89.992187c-2.625-7.863282 1.625-16.359376 9.476562-18.96875 7.953125-2.605469 16.359375 1.628906 18.96875 9.480468l27.636719 82.871094 80.558594 26.863281h28.769531c8.289062 0 15 6.707031 15 15 0 8.289063-6.710938 14.996094-15 14.996094zm0 0"/><path d="m226.484375 131.058594c-8.292969 0-15-6.710938-15-15v-40.03125c0-8.289063 6.707031-14.996094 15-14.996094 8.289063 0 14.996094 6.707031 14.996094 14.996094v40.03125c0 8.289062-6.707031 15-14.996094 15zm0 0"/></g><path d="m286.476562 131.058594c-8.289062 0-15-6.710938-15-15v-40.03125c0-8.289063 6.710938-14.996094 15-14.996094 8.289063 0 15 6.707031 15 14.996094v40.03125c0 8.289062-6.710937 15-15 15zm0 0" fill="#53433f"/><path d="m313.355469 172.054688c-6.285157 0-12.128907-3.96875-14.222657-10.253907-2.621093-7.863281 1.625-16.359375 9.476563-18.96875l49.945313-16.652343-26.628907-107.515626c-2.019531-8.023437 2.871094-16.167968 10.914063-18.175781 7.96875-2.09375 16.167968 2.855469 18.175781 10.914063l29.996094 120.988281c1.90625 7.601563-2.371094 15.378906-9.796875 17.855469l-63.113282 21.03125c-1.582031.527344-3.179687.777344-4.746093.777344zm0 0" fill="#53433f"/><path d="m346.472656 211.015625h-31.199218c-8.289063 0-15-6.707031-15-14.996094 0-8.292969 6.710937-15 15-15h28.765624l80.5625-26.863281 27.636719-82.871094c2.621094-7.851562 11.058594-12.085937 18.96875-9.480468 7.851563 2.609374 12.097657 11.105468 9.476563 18.96875l-29.996094 89.992187c-1.480469 4.480469-4.996094 7.996094-9.476562 9.476563l-89.992188 30c-1.539062.511718-3.136719.773437-4.746094.773437zm0 0" fill="#53433f"/><path d="m331.472656 181.019531c0 10.496094-1.5 20.699219-4.5 30.597657h-140.988281c-3-9.898438-4.5-20.097657-4.5-30.597657 0-49.496093 33.597656-89.992187 74.996094-89.992187 41.394531 0 74.992187 40.496094 74.992187 89.992187zm0 0" fill="#68544f"/><path d="m326.972656 211.613281h-70.492187v-120.585937c41.394531 0 74.992187 40.496094 74.992187 89.992187 0 10.496094-1.5 20.699219-4.5 30.59375zm0 0" fill="#3e322e"/><path d="m421.757812 499.933594-28.78125-144.890625-58.542968-39.035157c-6.898438-4.601562-8.761719-13.898437-4.160156-20.800781 4.566406-6.882812 13.871093-8.757812 20.796874-4.160156l63.714844 42.476563c3.3125 2.214843 5.609375 5.640624 6.386719 9.535156l30 150.988281c1.625 8.128906-3.648437 16.023437-11.761719 17.648437-7.949218 1.636719-16.011718-3.519531-17.652344-11.761718zm0 0" fill="#3e322e"/><path d="m485.457031 384.996094-87.792969-115.726563-59.835937-14.972656c-8.039063-2.003906-12.933594-10.148437-10.910156-18.175781 1.992187-8.054688 10.136719-12.949219 18.175781-10.910156l65.003906 16.257812c3.355469.835938 6.300782 2.78125 8.363282 5.550781l90.988281 119.988281c4.980469 6.621094 3.632812 16.023438-3 20.988282-6.640625 4.980468-16.039063 3.625-20.992188-3zm0 0" fill="#3e322e"/><path d="m361.46875 271.011719c0 15.597656-2.699219 31.796875-7.199219 47.695312h-195.582031c-4.5-15.898437-7.199219-32.097656-7.199219-47.695312 0-41.097657 18.296875-89.992188 104.992188-89.992188 86.691406 0 104.988281 48.894531 104.988281 89.992188zm0 0" fill="#725d57"/><path d="m361.46875 271.011719c0 15.597656-2.699219 31.796875-7.199219 47.695312h-97.789062v-137.6875c86.691406 0 104.988281 48.894531 104.988281 89.992188zm0 0" fill="#53433f"/><path d="m354.269531 318.707031c-3.296875 11.398438-7.496093 22.496094-12.898437 33.296875-.898438 2.097656-1.796875 4.5-3 6.597656l-81.890625.300782h-81.59375c-1.199219-2.101563-2.398438-4.800782-3.300781-6.898438-5.398438-10.800781-9.898438-21.898437-12.898438-33.296875 15.300781-28.199219 53.695312-47.695312 97.792969-47.695312 43.796875 0 82.492187 19.496093 97.789062 47.695312zm0 0" fill="#ff8597"/><path d="m354.269531 318.707031c-3.296875 11.398438-7.496093 22.496094-12.898437 33.296875-.898438 2.097656-1.796875 4.5-3 6.597656l-81.890625.300782v-87.890625c43.796875 0 82.492187 19.496093 97.789062 47.695312zm0 0" fill="#ff4949"/><path d="m338.371094 358.601562c-5.097656 9.300782-10.796875 18-17.097656 25.496094-17.699219 22.203125-40.195313 36.898438-64.792969 36.898438-24.597657 0-47.097657-14.699219-65.09375-36.898438-6-7.796875-11.699219-16.195312-16.5-25.195312 19.199219-17.097656 48.894531-27.898438 81.59375-27.898438s62.394531 10.5 81.890625 27.597656zm0 0" fill="#725d57"/><path d="m256.480469 331.007812c32.699219 0 62.394531 10.496094 81.890625 27.59375-5.097656 9.300782-10.796875 18-17.097656 25.496094-17.699219 22.203125-40.195313 36.898438-64.792969 36.898438zm0 0" fill="#53433f"/></svg>