<svg height="512pt" viewBox="0 0 512.00088 512" width="512pt" xmlns="http://www.w3.org/2000/svg"><path d="m238.539062 322.964844c-.777343-4.539063-3.589843-8.480469-7.632812-10.691406-4.042969-2.199219-8.890625-2.402344-13.109375-.585938l-39.390625 17.019531-3.324219-67.617187c-.25-4.921875-2.886719-9.40625-7.0625-11.996094-4.191406-2.625-9.347656-2.976562-13.871093-1.042969l-39.378907 17.023438-3.324219-67.632813c-.261718-5.230468-3.222656-9.949218-7.835937-12.453125-4.570313-2.488281-10.167969-2.402343-14.691406.21875l-81.46875 46.832031c-4.027344 2.347657-6.738281 6.417969-7.324219 11.03125-.601562 4.613282.96875 9.242188 4.265625 12.539063l181.851563 180.839844c2.929687 2.929687 6.769531 4.394531 10.605468 4.394531 3.839844 0 7.675782-1.464844 10.605469-4.394531l40.359375-58.460938zm0 0" fill="#ede9e8"/><path d="m504.550781 232.039062-81.464843-46.832031c-4.527344-2.621093-10.09375-2.707031-14.695313-.21875-4.613281 2.503907-7.570313 7.222657-7.835937 12.453125l-3.324219 67.632813-39.378907-17.023438c-4.523437-1.933593-9.667968-1.582031-13.871093 1.042969-4.175781 2.589844-6.8125 7.074219-7.058594 11.996094l-3.328125 67.617187-39.390625-17.019531c-4.246094-1.816406-9.066406-1.613281-13.109375.585938-4.042969 2.210937-6.855469 6.152343-7.632812 10.691406l-9.273438 55.023437 40.359375 58.460938c2.929687 2.929687 6.765625 4.398437 10.605469 4.398437 3.835937 0 7.675781-1.46875 10.605468-4.398437l181.855469-180.839844c3.292969-3.296875 4.863281-7.925781 4.261719-12.539063-.585938-4.613281-3.296875-8.683593-7.324219-11.03125zm0 0" fill="#dfd7d5"/><path d="m421.605469 141.316406-7.800781-28.800781c-8.402344-31.503906-42.300782-52-73.5-43.601563l-57.902344 15.601563-26.402344-72.601563-.300781-.898437c-2.097657-8.101563-10.199219-12.601563-18.296875-10.5l-87.003906 23.097656c-7.800782 2.097657-12.601563 10.5-10.5 18.597657l49.800781 161.207031c2.398437 8.101562 10.5 12.898437 18.601562 10.800781l47.699219-12.902344 10.203125-2.699218c3.898437-1.199219 7.199219-3.601563 9-6.898438 2.097656-3.601562 2.699219-7.800781 1.5-11.402344l-3.902344-14.699218 62.402344 12.898437c2.101563.300781 4.5.300781 6.902344-.300781l69-18.597656c7.796875-2.101563 12.597656-10.203126 10.5-18.300782zm0 0" fill="#68544f"/><path d="m411.105469 159.617188-69.003907 18.597656c-2.402343.601562-4.796874.601562-6.898437.300781l-62.402344-12.898437 3.898438 14.699218c1.199219 3.597656.601562 7.800782-1.5 11.398438-1.796875 3.300781-5.101563 5.703125-9 6.902344l-10.199219 2.699218v-189.402344l26.398438 72.601563 57.902343-15.601563c31.199219-8.398437 65.101563 12.097657 73.503907 43.597657l7.796874 28.804687c2.101563 8.097656-2.699218 16.199219-10.496093 18.300782zm0 0" fill="#53433f"/><path d="m256 360.921875c-41.402344 0-75 33.601563-75 75 0 41.402344 33.597656 76.003906 75 76.003906s75-34.601562 75-76.003906c0-41.398437-33.597656-75-75-75zm0 0" fill="#d2c5c2"/><path d="m331 435.921875c0 41.402344-33.597656 76.003906-75 76.003906v-151.003906c41.402344 0 75 33.601563 75 75zm0 0" fill="#c4b3af"/><path d="m256 390.921875c-24.902344 0-45 20.097656-45 45s20.097656 45 45 45 45-20.097656 45-45-20.097656-45-45-45zm0 0" fill="#ede9e8"/><path d="m301 435.921875c0 24.902344-20.097656 45-45 45v-90c24.902344 0 45 20.097656 45 45zm0 0" fill="#dfd7d5"/><path d="m271 435.921875c0 8.402344-6.597656 15-15 15s-15-6.597656-15-15c0-8.398437 6.597656-15 15-15s15 6.601563 15 15zm0 0" fill="#68544f"/><path d="m271 435.921875c0 8.402344-6.597656 15-15 15v-30c8.402344 0 15 6.601563 15 15zm0 0" fill="#53433f"/></svg>