<svg height="512pt" viewBox="-46 0 512 512.00103" width="512pt" xmlns="http://www.w3.org/2000/svg"><path d="m124.382812 447.554688-29.996093-29.996094c-5.859375-5.859375-5.859375-15.351563 0-21.210938 5.859375-5.855468 15.347656-5.855468 21.207031 0l29.996094 29.996094c5.859375 5.859375 5.859375 15.351562 0 21.210938-5.859375 5.859374-15.347656 5.859374-21.207032 0zm0 0" fill="#d2c5c2"/><path d="m104.988281 511.941406h-59.992187c-8.289063 0-14.996094-6.707031-14.996094-14.996094 0-8.292968 6.707031-15 14.996094-15h59.992187c8.292969 0 15 6.707032 15 15 0 8.289063-6.707031 14.996094-15 14.996094zm0 0" fill="#d2c5c2"/><path d="m347.960938 163.78125-47.992188 32.496094 20.394531 5.398437c-7.496093 11.699219-13.496093 22.796875-16.796875 32.996094l-33.296875 21.300781 31.796875 9.296875c3.902344 14.097657 13.199219 22.296875 24.898438 30.097657 14.699218 10.199218 32.996094 22.796874 32.996094 51.59375 0 .300781 0 .898437-.300782 1.199218l-59.691406 26.996094 47.992188 5.402344c-26.695313 41.695312-93.289063 83.988281-137.984376 109.484375-17.097656 9.597656-31.195312 16.796875-38.394531 20.398437-6.300781 3.300782-14.398437 1.199219-18.898437-4.796875-4.199219-6-3.601563-14.097656 1.800781-19.199219.296875-.597656 55.492187-56.394531 55.492187-109.488281 0-19.195312-12.898437-31.796875-36.296874-46.195312l36.296874-15.597657-95.6875-18.898437c-17.097656-10.496094-34.195312-24.097656-49.792968-39.992187l25.496094-15.601563-56.09375-23.996094c-7.199219-11.699219-13.5-24.597656-18.597657-39.597656l13.496094-18.097656-20.996094-20.996094c-.601562-.601563-1.5-.601563-2.402343-.898437-3.296876-18.597657-5.398438-38.996094-5.398438-62.09375 0-8.398438 6.597656-14.996094 15-14.996094l194.976562 20.394531 198.578126 21c-13.800782 12.296875-38.394532 36.292969-60.59375 62.390625zm0 0" fill="#ede9e8"/><path d="m347.960938 163.78125-47.992188 32.496094 20.394531 5.398437c-7.496093 11.699219-13.496093 22.796875-16.796875 32.996094l-33.296875 21.300781 31.796875 9.296875c3.902344 14.097657 13.199219 22.296875 24.898438 30.097657 14.699218 10.199218 32.996094 22.796874 32.996094 51.59375 0 .300781 0 .898437-.300782 1.199218l-59.691406 26.996094 47.992188 5.402344c-26.695313 41.695312-93.289063 83.988281-137.984376 109.484375v-409.652344l198.578126 20.996094c-13.800782 12.300781-38.394532 36.296875-60.59375 62.394531zm0 0" fill="#dfd7d5"/><path d="m419.953125 74.992188c0 8.699218-3.296875 17.097656-9.898437 24.898437-1.199219 1.5-3.601563 2.996094-5.398438 4.796875l-44.394531-8.097656 17.398437 25.195312c-37.796875 17.398438-98.992187 28.199219-167.683594 28.199219-63.589843 0-127.785156-9.601563-167.980468-28.199219l18-17.097656h-44.695313c-9.601562-8.699219-15.300781-18.597656-15.300781-29.695312 0-2.703126.300781-5.398438.902344-8.101563 11.398437-45.894531 116.386718-66.890625 209.074218-66.890625 104.390626 0 209.976563 25.796875 209.976563 74.992188zm0 0" fill="#dfd7d5"/><path d="m419.953125 74.992188c0 8.699218-3.296875 17.097656-9.898437 24.898437-1.199219 1.5-3.601563 2.996094-5.398438 4.796875l-44.394531-8.097656 17.398437 25.195312c-37.796875 17.398438-98.992187 28.199219-167.683594 28.199219v-149.984375c104.390626 0 209.976563 25.796875 209.976563 74.992188zm0 0" fill="#d2c5c2"/><path d="m59.996094 436.949219c0 8.285156-6.714844 15-15 15-8.28125 0-14.996094-6.714844-14.996094-15 0-8.28125 6.714844-14.996094 14.996094-14.996094 8.285156 0 15 6.714844 15 14.996094zm0 0" fill="#d2c5c2"/><path d="m299.96875 496.945312c0 8.28125-6.714844 14.996094-15 14.996094-8.28125 0-14.996094-6.714844-14.996094-14.996094 0-8.285156 6.714844-15 14.996094-15 8.285156 0 15 6.714844 15 15zm0 0" fill="#c4b3af"/><path d="m283.679688 358.898438c-8.261719.703124-14.367188 7.980468-13.648438 16.226562.671875 7.820312 7.21875 13.710938 14.925781 13.710938.421875 0 .863281-.015626 1.300781-.058594 21.421876-1.847656 41.902344-4.699219 61.785157-8.128906 7.074219-11.03125 11.484375-21.992188 11.761719-32.570313-24.058594 4.835937-49.429688 8.515625-76.125 10.820313zm0 0" fill="#d2c5c2"/><path d="m269.972656 315.164062c.296875 8.097657-6 15.296876-14.097656 15.597657-15.902344.902343-31.199219 1.199219-45.898438 1.199219-12.597656 0-24.296874-.597657-36.296874-1.199219-7.199219-4.5-15.597657-9.300781-24.894532-14.398438-10.800781-6-22.796875-12.597656-34.496094-20.097656 29.695313 3.902344 61.492188 5.699219 95.6875 5.699219 14.097657 0 29.097657-.296875 44.09375-1.199219 8.101563-.601563 15.300782 6 15.902344 14.398437zm0 0" fill="#dfd7d5"/><path d="m210.417969 256.117188c.160156 8.1875 6.839843 14.707031 14.996093 14.707031h.292969c26.816407-.527344 52.289063-2.425781 76.445313-5.5-1.03125-3.957031-1.804688-8.226563-1.804688-13.542969 0-5.214844 1.179688-10.957031 3.195313-17.035156-24.785157 3.375-51.09375 5.542968-78.421875 6.078125-8.289063.164062-14.867188 7.019531-14.703125 15.292969zm0 0" fill="#d2c5c2"/><path d="m269.972656 315.164062c.296875 8.097657-6 15.296876-14.097656 15.597657-15.902344.902343-31.199219 1.199219-45.898438 1.199219v-29.996094c14.097657 0 29.097657-.300782 44.09375-1.199219 8.101563-.601563 15.300782 6 15.902344 14.398437zm0 0" fill="#d2c5c2"/><path d="m164.996094 269.796875c7.910156 0 14.53125-6.195313 14.972656-14.191406.4375-8.261719-5.902344-15.335938-14.179688-15.773438-51.007812-2.769531-94.96875-10.679687-131.976562-23.007812 9.078125 15.214843 19.4375 28.277343 30.609375 39.539062 30.140625 6.769531 63.226563 11.445313 99.757813 13.421875.277343.011719.539062.011719.816406.011719zm0 0" fill="#dfd7d5"/><path d="m209.976562 196.140625c.207032 8.15625 6.871094 14.644531 15 14.644531h.351563c21.378906-.511718 57.347656-2.492187 95.101563-9.128906 7.929687-12.210938 17.542968-25.714844 27.664062-37.738281-46.367188 12.214843-96.789062 16.242187-123.46875 16.871093-8.289062.207032-14.835938 7.074219-14.648438 15.351563zm0 0" fill="#d2c5c2"/><path d="m103.875 202.511719c7.179688 0 13.535156-5.171875 14.78125-12.480469 1.375-8.171875-4.117188-15.921875-12.273438-17.3125-42.242187-7.175781-75.390624-19.511719-98.53125-34.6875-.769531-.5-1.636718-.632812-2.453124-.976562 2.550781 14.132812 5.859374 28.226562 9.992187 40.136718 23.464844 10.898438 52.152344 19.367188 85.953125 25.113282.847656.132812 1.699219.207031 2.53125.207031zm0 0" fill="#dfd7d5"/><path d="m209.976562 74.816406c-.1875-8.289062-7.335937-15.25-15.347656-14.648437-72.21875 1.691406-147.761718 16.15625-179.328125 44.625 6.910157 6.257812 15.878907 11.894531 26.636719 16.875 22.464844-14.433594 76.0625-29.6875 153.394531-31.503907 8.273438-.203124 14.835938-7.074218 14.644531-15.347656zm0 0" fill="#d2c5c2"/><path d="m317.867188 69.703125c-8.304688-1.625-16.023438 3.691406-17.621094 11.820313-1.597656 8.128906 3.691406 16.007812 11.820312 17.621093 32.632813 6.421875 53.714844 14.90625 65.722656 22.664063 11.253907-5.144532 20.160157-10.914063 26.933594-17.128906-20.382812-18.527344-57.367187-29.160157-86.855468-34.976563zm0 0" fill="#c4b3af"/></svg>