<svg height="512pt" viewBox="0 0 512 512" width="512pt" xmlns="http://www.w3.org/2000/svg"><path d="m502.699219 62.199219-151-61c-1.800781-.898438-3.597657-1.199219-5.699219-1.199219-1.5 0-3.300781.300781-4.800781.898438l-174.597657 59.199218-145.902343-58.898437c-4.796875-1.800781-9.898438-1.5-14.101563 1.5-4.195312 2.699219-6.597656 7.199219-6.597656 12.300781v421c0 6 3.601562 11.699219 9.300781 13.800781l151 61c3.300781 1.5 7.199219 1.5 10.5.296875l174.597657-59.199218.601562.300781 145.300781 58.597656c1.800781.902344 3.898438 1.203125 5.699219 1.203125 3 0 6-.902344 8.402344-2.703125 4.195312-2.695313 6.597656-7.199219 6.597656-12.296875v-421c0-6-3.601562-11.699219-9.300781-13.800781zm0 0" fill="#ede9e8"/><path d="m512 76v421c0 5.097656-2.402344 9.601562-6.597656 12.300781-2.402344 1.796875-5.402344 2.699219-8.402344 2.699219-1.800781 0-3.898438-.300781-5.699219-1.199219l-145.300781-58.601562v-452.199219c2.101562 0 3.898438.300781 5.699219 1.199219l151 61c5.699219 2.101562 9.300781 7.800781 9.300781 13.800781zm0 0" fill="#dfd7d5"/><path d="m346 31.199219-.601562-.300781-164.398438 55.742187-10.199219 3.460937c-3.300781 1.199219-7.199219 1.199219-10.5-.300781l-9.300781-3.75-121-48.851562v388.601562l121 48.980469 15.601562 6.320312 14.398438-4.882812 150-50.859375 10.199219-3.460937c1.5-.597657 3.300781-.898438 4.800781-.898438 2.101562 0 3.898438.300781 5.699219 1.199219l9.300781 3.679687 121 47.921875v-387.601562zm0 0" fill="#90e36a"/><path d="m482 86.199219v387.601562l-130.300781-51.601562c-1.800781-.898438-3.597657-1.199219-5.699219-1.199219v-389.800781zm0 0" fill="#56c225"/><path d="m181 86.640625v259.359375c0 8.289062-6.710938 15-15 15s-15-6.710938-15-15v-259.949219l9.300781 3.75c3.300781 1.5 7.199219 1.5 10.5.300781zm0 0" fill="#70da40"/><path d="m181 466v10.21875l-14.398438 4.882812-15.601562-6.320312v-8.78125c0-8.289062 6.710938-15 15-15s15 6.710938 15 15zm0 0" fill="#70da40"/><path d="m361 406v19.878906l-9.300781-3.679687c-1.800781-.898438-3.597657-1.199219-5.699219-1.199219-1.5 0-3.300781.300781-4.800781.898438l-10.199219 3.460937v-19.359375c0-8.398438 6.601562-15 15-15s15 6.601562 15 15zm0 0" fill="#56c225"/><path d="m160.433594 419.929688-6.445313-2.578126c-7.6875-3.074218-11.4375-11.804687-8.363281-19.496093 3.0625-7.734375 11.878906-11.453125 19.496094-8.363281l1.347656.542968 16.671875-5.554687c7.9375-2.648438 16.363281 1.628906 18.96875 9.480469 2.621094 7.863281-1.625 16.359374-9.476563 18.96875l-21.886718 7.296874c-3.167969 1.082032-6.910156 1.070313-10.3125-.296874zm-62.167969-24.859376-27.847656-11.144531c-7.6875-3.089843-11.425781-11.820312-8.347657-19.511719 3.089844-7.707031 11.820313-11.457031 19.511719-8.351562l27.847657 11.148438c7.6875 3.089843 11.425781 11.820312 8.347656 19.511718-3.132813 7.785156-11.933594 11.378906-19.511719 8.347656zm132.320313-10.589843c-2.621094-7.851563 1.609374-16.347657 9.476562-18.96875l28.449219-9.492188c7.835937-2.652343 16.347656 1.625 18.96875 9.476563 2.621093 7.851562-1.613281 16.347656-9.476563 18.972656l-28.449218 9.492188c-7.738282 2.601562-16.320313-1.527344-18.96875-9.480469zm85.371093-28.460938c-2.621093-7.867187 1.625-16.363281 9.476563-18.96875l15.820312-5.273437c7.953125-2.621094 16.347656 1.625 18.96875 9.476562 2.625 7.867188-1.625 16.363282-9.476562 18.972656l-15.820313 5.269532c-7.910156 2.636718-16.367187-1.664063-18.96875-9.476563zm0 0" fill="#68544f"/><path d="m346 61c-57.898438 0-105 47.101562-105 105 0 18.300781 4.800781 36.597656 14.097656 52.5l78.003906 135c2.699219 4.5 7.5 7.5 12.898438 7.5s10.199219-3 12.898438-7.5l78.003906-135c9.296875-15.902344 14.097656-34.199219 14.097656-52.5 0-57.898438-47.101562-105-105-105zm0 150c-24.902344 0-45-20.101562-45-45 0-24.902344 20.097656-45 45-45s45 20.097656 45 45c0 24.898438-20.097656 45-45 45zm0 0" fill="#ff6c6c"/><path d="m451 166c0 18.300781-4.800781 36.597656-14.097656 52.5l-78.003906 135c-2.699219 4.5-7.5 7.5-12.898438 7.5v-150c24.902344 0 45-20.101562 45-45 0-24.902344-20.097656-45-45-45v-60c57.898438 0 105 47.101562 105 105zm0 0" fill="#ff4949"/><path d="m361 406v19.878906l-9.300781-3.679687c-1.800781-.898438-3.597657-1.199219-5.699219-1.199219v-30c8.398438 0 15 6.601562 15 15zm0 0" fill="#49a520"/></svg>