<svg height="512pt" viewBox="0 0 512 512" width="512pt" xmlns="http://www.w3.org/2000/svg"><path d="m211 346h30v151h-30zm0 0" fill="#68544f"/><path d="m226 346h15v151h-15zm0 0" fill="#53433f"/><path d="m301 406v30c0 8.398438-6.597656 15-15 15s-15-6.601562-15-15v-15h-105c-5.097656 0-9.902344-2.699219-12.898438-7.199219-2.703124-4.199219-2.703124-9.902343-.601562-14.402343l30-60c3.898438-7.5 12.898438-10.5 20.097656-6.898438 7.5 3.898438 10.5 12.898438 6.902344 20.097656l-19.199219 38.402344h95.699219c8.402344 0 15 6.597656 15 15zm0 0" fill="#725d57"/><path d="m301 406v30c0 8.398438-6.597656 15-15 15s-15-6.601562-15-15v-15h-45v-30h60c8.402344 0 15 6.597656 15 15zm0 0" fill="#68544f"/><path d="m406 30h-2.5625l-72.4375 75c0 8.289062 6.710938 15 15 15h120c8.289062 0 15-6.710938 15-15 0-41.351562-33.648438-75-75-75zm0 0" fill="#53433f"/><path d="m421 60c0 33-27 60-60 60v166c0 41.398438-33.601562 75-75 75h-135l-15-30-15 30h-45c-8.402344 0-15-6.601562-15-15v-30c0-74.402344 60.601562-135 135-135h75v-106c0-41.398438 33.601562-75 75-75h15c33 0 60 27 60 60zm0 0" fill="#ff9ac9"/><path d="m421 60c0 33-27 60-60 60v166c0 41.398438-33.601562 75-75 75h-60v-180h45v-106c0-41.398438 33.601562-75 75-75h15c33 0 60 27 60 60zm0 0" fill="#ff7cb9"/><path d="m512 497c0 8.398438-6.597656 15-15 15h-482c-8.402344 0-15-6.601562-15-15 0-8.402344 6.597656-15 15-15h482c8.402344 0 15 6.597656 15 15zm0 0" fill="#76e2f8"/><path d="m361 436c0 8.285156-6.714844 15-15 15s-15-6.714844-15-15 6.714844-15 15-15 15 6.714844 15 15zm0 0" fill="#73bcff"/><path d="m121 436c0 8.285156-6.714844 15-15 15s-15-6.714844-15-15 6.714844-15 15-15 15 6.714844 15 15zm0 0" fill="#9ed0ff"/><path d="m241 256c0 8.398438-6.597656 15-15 15h-30c-24.902344 0-45 20.097656-45 45v45h-30v-45c0-41.398438 33.601562-75 75-75h30c8.402344 0 15 6.597656 15 15zm0 0" fill="#ff7cb9"/><path d="m226 271v-30c8.402344 0 15 6.597656 15 15 0 8.398438-6.597656 15-15 15zm0 0" fill="#ff5ca8"/></svg>