<svg height="512pt" viewBox="-31 0 512 512" width="512pt" xmlns="http://www.w3.org/2000/svg"><path d="m450 210.597656c0 65.703125-53.699219 120-122.101562 126-7.5 24.601563-33.597657 45-69.597657 53.101563h-66.601562c-36-8.101563-62.097657-28.5-69.597657-53.101563-68.402343-6-122.101562-60.296875-122.101562-126 0-56.699218 39-105.296875 96.300781-121.199218 17.101563-53.097657 69-89.398438 128.699219-89.398438 44.398438 0 85.800781 20.398438 111 54.898438 7.800781 10.5 13.800781 22.203124 17.699219 34.5 57.300781 15.902343 96.300781 64.5 96.300781 121.199218zm0 0" fill="#90e36a"/><path d="m450 210.597656c0 65.703125-53.699219 120-122.101562 126-7.5 24.601563-33.597657 45-69.597657 53.101563h-33.300781v-389.699219c44.398438 0 85.800781 20.398438 111 54.898438 7.800781 10.5 13.800781 22.203124 17.699219 34.5 57.300781 15.902343 96.300781 64.5 96.300781 121.199218zm0 0" fill="#56c225"/><path d="m210 270h-30c-24.8125 0-45-20.1875-45-45v-30c0-8.289062 6.710938-15 15-15s15 6.710938 15 15v30c0 8.277344 6.722656 15 15 15h30c8.289062 0 15 6.710938 15 15s-6.710938 15-15 15zm0 0" fill="#68544f"/><path d="m270 270h-30c-8.289062 0-15-6.710938-15-15s6.710938-15 15-15h30c8.277344 0 15-6.722656 15-15v-30c0-8.289062 6.710938-15 15-15s15 6.710938 15 15v30c0 24.8125-20.1875 45-45 45zm0 0" fill="#53433f"/><path d="m195 165h60v332h-60zm0 0" fill="#725d57"/><path d="m225 165h30v332h-30zm0 0" fill="#53433f"/><path d="m299.097656 149.097656c-19.796875 20.101563-45.898437 30.902344-74.097656 30.902344s-54.300781-10.800781-74.097656-30.902344c-6-5.699218-6-15.296875 0-21 5.695312-5.996094 15.296875-5.996094 20.996094 0 14.101562 14.101563 33.601562 21.300782 53.101562 21.300782s39-7.199219 53.101562-21.300782c5.699219-6 15.300782-6 21 0 5.996094 5.703125 5.996094 15.300782-.003906 21zm0 0" fill="#56c225"/><path d="m299.097656 149.097656c-19.796875 20.101563-45.898437 30.902344-74.097656 30.902344v-30.601562c19.5 0 39-7.199219 53.101562-21.300782 5.699219-6 15.300782-6 21 0 5.996094 5.703125 5.996094 15.300782-.003906 21zm0 0" fill="#49a520"/><path d="m450 497c0 8.398438-6.597656 15-15 15h-420c-8.402344 0-15-6.601562-15-15 0-8.402344 6.597656-15 15-15h420c8.402344 0 15 6.597656 15 15zm0 0" fill="#90e36a"/><path d="m450 497c0 8.398438-6.597656 15-15 15h-210v-30h210c8.402344 0 15 6.597656 15 15zm0 0" fill="#56c225"/></svg>