<svg height="512pt" viewBox="0 -31 512 512" width="512pt" xmlns="http://www.w3.org/2000/svg"><path d="m211 105c0 57.988281-47.011719 105-105 105s-106-47.011719-106-105 48.011719-105 106-105 105 47.011719 105 105zm0 0" fill="#d2c5c2"/><path d="m181 105c0 41.421875-33.578125 75-75 75s-76-33.578125-76-75 34.578125-75 76-75 75 33.578125 75 75zm0 0" fill="#725d57"/><path d="m512 105c0 57.988281-48.011719 105-106 105s-105-47.011719-105-105 47.011719-105 105-105 106 47.011719 106 105zm0 0" fill="#c4b3af"/><path d="m482 105c0 41.421875-34.578125 75-76 75s-75-33.578125-75-75 33.578125-75 75-75 76 33.578125 76 75zm0 0" fill="#68544f"/><path d="m256 60c-130.5 0-226 88.199219-226 210 0 114.300781 82.898438 180 226 180s226-65.699219 226-180c0-121.800781-95.5-210-226-210zm0 0" fill="#d2c5c2"/><path d="m482 270c0 114.300781-82.898438 180-226 180v-390c130.5 0 226 88.199219 226 210zm0 0" fill="#c4b3af"/><path d="m151 225c0 8.285156-6.714844 15-15 15s-15-6.714844-15-15 6.714844-15 15-15 15 6.714844 15 15zm0 0" fill="#68544f"/><path d="m391 225c0 8.285156-6.714844 15-15 15s-15-6.714844-15-15 6.714844-15 15-15 15 6.714844 15 15zm0 0" fill="#53433f"/><path d="m316 255v60c0 33-27 60-60 60s-60-27-60-60v-60c0-33 27-60 60-60 16.5 0 31.5 6.597656 42.300781 17.699219 11.101563 10.800781 17.699219 25.800781 17.699219 42.300781zm0 0" fill="#68544f"/><path d="m316 255v60c0 33-27 60-60 60v-180c16.5 0 31.5 6.597656 42.300781 17.699219 11.101563 10.800781 17.699219 25.800781 17.699219 42.300781zm0 0" fill="#53433f"/></svg>