<svg height="512pt" viewBox="0 -61 512 512" width="512pt" xmlns="http://www.w3.org/2000/svg"><path d="m512 255c0 17.101562-3 31.800781-8.101562 44.699219l-231.898438 30-16-1.800781-247.898438-28.199219c-5.101562-12.898438-8.101562-27.597657-8.101562-44.699219 0-98.699219 103.597656-195 256-195h5.5c140.402344 1.800781 250.5 87.597656 250.5 195zm0 0" fill="#70da40"/><path d="m512 255c0 17.101562-3 31.800781-8.101562 44.699219l-231.898438 30-16-1.800781v-267.898438h5.5c140.402344 1.800781 250.5 87.597656 250.5 195zm0 0" fill="#56c225"/><path d="m503.898438 299.699219c-4.5 11.402343-10.5 21.300781-18.300782 30-20.398437 23.699219-51 37.800781-84.597656 46.5-33.902344 8.699219-70.800781 12-103.800781 13.199219-13.199219.300781-27.398438.601562-41.199219.601562-87.300781 0-184.902344-8.398438-229.902344-60.300781-7.5-8.695313-13.5-18.597657-17.996094-30 60.898438 1.199219 90-12.898438 120.296876-28.199219 30.902343-15.300781 64-31.5 127.601562-31.5s96.699219 16.199219 127.597656 31.5c30.300782 15.300781 59.402344 29.398438 120.300782 28.199219zm0 0" fill="#fed2a4"/><path d="m503.898438 299.699219c-4.5 11.402343-10.5 21.300781-18.300782 30-20.398437 23.699219-51 37.800781-84.597656 46.5-33.902344 8.699219-70.800781 12-103.800781 13.199219-13.199219.300781-27.398438.601562-41.199219.601562v-150c63.597656 0 96.699219 16.199219 127.597656 31.5 30.300782 15.300781 59.402344 29.398438 120.300782 28.199219zm0 0" fill="#f6a96c"/><path d="m105 210c-57.890625 0-105-47.109375-105-105s47.109375-105 105-105 105 47.109375 105 105-47.109375 105-105 105zm0 0" fill="#56c225"/><path d="m105 30c-41.351562 0-75 33.648438-75 75s33.648438 75 75 75 75-33.648438 75-75-33.648438-75-75-75zm0 0" fill="#ede9e8"/><path d="m120 120h-30c-8.289062 0-15-6.710938-15-15s6.710938-15 15-15h30c8.289062 0 15 6.710938 15 15s-6.710938 15-15 15zm0 0" fill="#725d57"/><path d="m407 210c-57.890625 0-105-47.109375-105-105s47.109375-105 105-105 105 47.109375 105 105-47.109375 105-105 105zm0 0" fill="#49a520"/><path d="m407 30c-41.351562 0-75 33.648438-75 75s33.648438 75 75 75 75-33.648438 75-75-33.648438-75-75-75zm0 0" fill="#d2c5c2"/><path d="m422 120h-30c-8.289062 0-15-6.710938-15-15s6.710938-15 15-15h30c8.289062 0 15 6.710938 15 15s-6.710938 15-15 15zm0 0" fill="#53433f"/><path d="m241 195c0 8.285156-7.714844 15-16 15s-15-6.714844-15-15 6.714844-15 15-15 16 6.714844 16 15zm0 0" fill="#68544f"/><path d="m302 195c0 8.285156-6.714844 15-15 15s-15-6.714844-15-15 6.714844-15 15-15 15 6.714844 15 15zm0 0" fill="#53433f"/></svg>