<svg height="512pt" viewBox="-31 0 512 512" width="512pt" xmlns="http://www.w3.org/2000/svg"><path d="m210 271h-155.011719c-3.25 0-6.398437 1.054688-8.992187 3.003906l-39.988282 30c-3.78125 2.824219-6.007812 7.277344-6.007812 11.996094s2.226562 9.171875 6.007812 11.996094l39.988282 30c2.59375 1.949218 5.742187 3.003906 8.992187 3.003906h155.011719zm0 0" fill="#b35f49"/><path d="m443.992188 244.003906-39.988282-30c-2.59375-1.949218-5.742187-3.003906-8.992187-3.003906h-155.011719v90h155.011719c3.25 0 6.398437-1.054688 8.992187-3.003906l39.988282-30c3.78125-2.824219 6.007812-7.277344 6.007812-11.996094s-2.226562-9.171875-6.007812-11.996094zm0 0" fill="#99503d"/><path d="m255 30v467h-60v-467c0-16.5 13.5-30 30-30s30 13.5 30 30zm0 0" fill="#68544f"/><path d="m255 30v467h-30v-497c16.5 0 30 13.5 30 30zm0 0" fill="#53433f"/><path d="m444 93-39.902344-30c-2.699218-1.800781-5.695312-3-9-3h-340.195312c-3.300782 0-6.300782 1.199219-9 3l-39.902344 30c-3.898438 2.699219-6 7.199219-6 12s2.101562 9.300781 6 12l39.902344 30c2.699218 1.800781 5.695312 3 9 3h340.199218c3.300782 0 6.300782-1.199219 9-3l39.898438-30c3.902344-2.699219 6-7.199219 6-12s-2.101562-9.300781-6-12zm0 0" fill="#c6715a"/><path d="m450 105c0 4.800781-2.101562 9.300781-6 12l-39.902344 30c-2.699218 1.800781-5.695312 3-9 3h-170.097656v-90h170.097656c3.300782 0 6.300782 1.199219 9 3l39.902344 30c3.898438 2.699219 6 7.199219 6 12zm0 0" fill="#b35f49"/><path d="m390 497c0 8.398438-6.597656 15-15 15h-300c-8.402344 0-15-6.601562-15-15 0-8.402344 6.597656-15 15-15h300c8.402344 0 15 6.597656 15 15zm0 0" fill="#90e36a"/><path d="m390 497c0 8.398438-6.597656 15-15 15h-150v-30h150c8.402344 0 15 6.597656 15 15zm0 0" fill="#56c225"/></svg>