<svg height="511pt" viewBox="0 0 511.99873 511" width="511pt" xmlns="http://www.w3.org/2000/svg"><path d="m509.703125 505.519531c-2.996094 4.199219-7.496094 6.902344-12.59375 6.902344h-121.105469l-14.996094-23.097656-45.59375-70.488281-13.199218-133.980469 9-20.398438 36.292968 42.59375h26.996094l35.996094-42.292969 100.105469 226.664063c2.101562 4.5 1.800781 9.902344-.902344 14.097656zm0 0" fill="#b35f49"/><path d="m509.703125 505.519531c-2.996094 4.199219-7.496094 6.902344-12.59375 6.902344h-121.105469l-14.996094-23.097656v-182.273438h13.496094l35.996094-42.292969 100.105469 226.667969c2.101562 4.496094 1.800781 9.898438-.902344 14.09375zm0 0" fill="#804231"/><path d="m407.070312 196.699219c-1.449218-8.144531 3.984376-15.9375 12.140626-17.386719 8.613281-1.535156 16.828124-4.539062 24.402343-8.949219 7.21875-4.144531 16.34375-1.683593 20.503907 5.449219 4.160156 7.164062 1.710937 16.347656-5.449219 20.503906-10.617188 6.152344-22.128907 10.371094-34.214844 12.523438-8.019531 1.472656-15.925781-3.898438-17.382813-12.140625zm0 0" fill="#fdbf00"/><path d="m353.816406 196.597656c-10.605468-6.078125-20.007812-13.914062-27.945312-23.257812-5.359375-6.3125-4.585938-15.789063 1.730468-21.148438 6.324219-5.375 15.785157-4.558594 21.148438 1.726563 5.683594 6.707031 12.417969 12.316406 20.003906 16.667969 7.179688 4.117187 9.667969 13.285156 5.539063 20.476562-4.101563 7.15625-13.246094 9.667969-20.476563 5.535156zm0 0" fill="#ffd400"/><path d="m406 60.488281c-24.898438 0-44.992188 20.097657-44.992188 44.996094 0 24.894531 20.09375 44.992187 44.992188 44.992187s44.992188-20.097656 44.992188-44.992187c0-24.898437-20.09375-44.996094-44.992188-44.996094zm0 0" fill="#ffd400"/><path d="m486.5 150.316406c-7.792969-2.828125-12.804688-11.425781-9.992188-19.21875 2.972657-8.199218 5.480469-16.8125 5.480469-25.613281 0-8.289063 6.722657-15.511719 14.996094-15.511719 8.292969 0 15.015625 6.195313 15.015625 14.484375 0 16.660157-3.269531 28.542969-6.285156 36.863281-2.785156 7.679688-11.277344 11.824219-19.214844 8.996094zm0 0" fill="#fdbf00"/><path d="m316.011719 120.746094c-8.289063 0-14.996094-6.460938-14.996094-14.75v-.511719c0-12.113281 2.035156-23.992187 6.0625-35.285156 2.796875-7.804688 11.308594-11.90625 19.171875-9.09375 7.808594 2.78125 11.863281 11.363281 9.097656 19.171875-2.886718 8.054687-4.335937 16.535156-4.335937 25.207031 0 8.289063-6.707031 15.261719-15 15.261719zm0 0" fill="#ffd400"/><path d="m462.945312 56.695312c-5.742187-6.679687-12.496093-12.242187-20.082031-16.535156-7.203125-4.070312-9.753906-13.226562-5.667969-20.429687 4.070313-7.207031 13.253907-9.726563 20.433594-5.667969 10.617188 6.003906 21.0625 13.765625 29.074219 23.097656 5.390625 6.28125 4.671875 15.742188-1.609375 21.148438-6.230469 5.359375-16.707031 4.714844-22.148438-1.613282zm0 0" fill="#fdbf00"/><path d="m347.488281 34.023438c-4.203125-7.144532-1.832031-16.328126 5.300781-20.535157 10.578126-6.238281 22.058594-10.515625 34.144532-12.738281 8.125-1.496094 15.960937 3.894531 17.457031 12.039062 1.492187 8.140626-3.882813 15.960938-12.039063 17.457032-8.597656 1.582031-16.785156 4.644531-24.328124 9.082031-7.113282 4.1875-16.3125 1.859375-20.535157-5.304687zm0 0" fill="#ffd400"/><path d="m450.992188 105.484375c0 24.894531-20.09375 44.992187-44.992188 44.992187v-89.988281c24.898438 0 44.992188 20.097657 44.992188 44.996094zm0 0" fill="#fdbf00"/><path d="m410.5 264.757812-35.996094 72.289063c-2.699218 5.101563-7.796875 8.398437-13.496094 8.398437-5.699218 0-10.796874-3.296874-13.496093-8.398437l-36.296875-72.589844 15.898437-35.09375 20.09375-44.691406c2.402344-5.402344 7.800781-8.699219 13.800781-8.699219s11.398438 3.300782 13.796876 8.699219l20.097656 44.691406zm0 0" fill="#ede9e8"/><path d="m388.601562 505.820312c-2.996093 4.199219-7.496093 6.601563-12.597656 6.601563h-360.945312c-5.097656 0-9.597656-2.402344-12.59375-6.601563-2.703125-4.496093-3.300782-9.597656-1.203125-14.394531l115.882812-270.160156 35.394531 10.796875h86.988282l35.394531-10.796875 27.296875 63.589844 87.585938 206.570312c2.097656 4.796875 1.5 9.898438-1.203126 14.394531zm0 0" fill="#c6715a"/><path d="m388.601562 505.820312c-2.996093 4.199219-7.496093 6.601563-12.597656 6.601563h-179.972656v-280.359375h43.496094l35.394531-10.796875 27.292969 63.589844 87.589844 206.566406c2.097656 4.800781 1.5 9.902344-1.203126 14.398437zm0 0" fill="#99503d"/><path d="m274.921875 221.265625-35.394531 70.789063c-2.703125 5.101562-7.800782 8.398437-13.5 8.398437-5.699219 0-10.796875-3.296875-13.496094-8.398437l-16.5-32.992188-16.496094 32.992188c-5.097656 10.199218-21.898437 10.199218-26.996094 0l-35.394531-70.789063 15.597657-35.996094 49.492187-115.78125c2.398437-5.398437 8.097656-8.097656 13.796875-8.097656s11.398438 2.699219 13.800781 8.097656l49.492188 115.480469zm0 0" fill="#ede9e8"/><g fill="#d2c5c2"><path d="m274.921875 221.265625-35.394531 70.789063c-2.703125 5.101562-7.800782 8.398437-13.5 8.398437-5.699219 0-10.796875-3.296875-13.496094-8.398437l-16.5-32.992188v-197.671875c5.699219 0 11.398438 2.699219 13.800781 8.097656l49.492188 115.480469zm0 0"/><path d="m410.5 264.757812-35.996094 72.289063c-2.699218 5.101563-7.796875 8.398437-13.496094 8.398437v-169.472656c6 0 11.398438 3.296875 13.796876 8.699219l20.097656 44.691406zm0 0"/></g></svg>