<svg height="512pt" viewBox="0 0 512 512" width="512pt" xmlns="http://www.w3.org/2000/svg"><path d="m236.0625 479.316406c-4.199219 17.390625-23.386719 32.683594-49.773438 32.683594-10.792968 0-21.285156-3-30.28125-8.394531-5.695312-3.597657-12.890624-5.398438-20.085937-5.398438-7.496094 0-14.390625 1.800781-20.085937 5.398438-8.996094 5.394531-20.492188 8.394531-31.585938 8.394531-26.082031 0-45.273438-15.59375-49.46875-32.683594-3.597656-14.390625 2.398438-29.378906 15.890625-38.976562 10.792969-7.792969 17.089844-15.890625 19.488281-24.285156 8.09375-32.078126 35.777344-55.265626 65.761719-55.265626 29.980469 0 56.664063 23.1875 64.757813 55.265626 2.402343 8.394531 8.699218 16.492187 19.492187 24.289062 13.191406 9.59375 19.488281 24.582031 15.890625 38.972656zm0 0" fill="#68544f"/><path d="m29.984375 390.769531c-16.53125 0-29.984375-13.453125-29.984375-29.980469 0-17.347656 13.71875-44.972656 29.984375-44.972656 16.261719 0 29.980469 27.625 29.980469 44.972656 0 16.527344-13.453125 29.980469-29.980469 29.980469zm0 0" fill="#68544f"/><path d="m240.859375 390.769531c-16.527344 0-29.984375-13.453125-29.984375-29.980469 0-17.347656 13.71875-44.972656 29.984375-44.972656s29.980469 27.625 29.980469 44.972656c0 16.527344-13.453125 29.980469-29.980469 29.980469zm0 0" fill="#53433f"/><path d="m180.894531 330.804688c-16.527343 0-29.984375-13.453126-29.984375-29.980469 0-17.347657 13.71875-44.972657 29.984375-44.972657s29.980469 27.625 29.980469 44.972657c0 16.527343-13.453125 29.980469-29.980469 29.980469zm0 0" fill="#53433f"/><g fill="#68544f"><path d="m89.949219 330.804688c-16.53125 0-29.984375-13.453126-29.984375-29.980469 0-17.347657 13.71875-44.972657 29.984375-44.972657 16.261719 0 30.980469 27.625 30.980469 44.972657 0 16.527343-14.453126 29.980469-30.980469 29.980469zm0 0"/><path d="m476.921875 223.46875c-4.199219 17.390625-24.386719 32.679688-50.773437 32.679688-10.792969 0-21.285157-2.996094-30.28125-8.394532-5.695313-3.597656-12.890626-5.398437-20.085938-5.398437-7.496094 0-14.390625 1.800781-20.085938 5.398437-8.996093 5.398438-19.492187 8.394532-30.585937 8.394532-26.082031 0-45.273437-15.589844-49.472656-32.679688-3.597657-14.390625 2.402343-29.382812 15.894531-38.976562 10.792969-7.796876 17.089844-16.890626 19.488281-25.285157 8.09375-32.082031 34.777344-54.269531 64.761719-54.269531 29.980469 0 56.667969 22.1875 64.761719 54.269531 2.398437 8.394531 9.695312 17.488281 20.488281 25.285157 13.191406 9.59375 19.488281 24.585937 15.890625 38.976562zm0 0"/><path d="m270.839844 134.921875c-16.527344 0-29.980469-13.453125-29.980469-29.984375 0-17.347656 13.71875-44.972656 29.980469-44.972656 16.265625 0 29.984375 27.625 29.984375 44.972656 0 16.53125-13.453125 29.984375-29.984375 29.984375zm0 0"/></g><path d="m481.71875 134.921875c-16.53125 0-30.984375-13.453125-30.984375-29.984375 0-17.347656 14.71875-44.972656 30.984375-44.972656 16.261719 0 29.980469 27.625 29.980469 44.972656 0 16.53125-13.453125 29.984375-29.980469 29.984375zm0 0" fill="#53433f"/><path d="m420.753906 74.957031c-16.527344 0-29.984375-13.453125-29.984375-29.984375 0-17.347656 13.71875-44.972656 29.984375-44.972656s29.980469 27.625 29.980469 44.972656c0 16.53125-13.453125 29.984375-29.980469 29.984375zm0 0" fill="#53433f"/><path d="m330.804688 74.957031c-16.527344 0-29.980469-13.453125-29.980469-29.984375 0-17.347656 13.71875-44.972656 29.980469-44.972656 16.265624 0 29.984374 27.625 29.984374 44.972656 0 16.53125-13.453124 29.984375-29.984374 29.984375zm0 0" fill="#68544f"/><path d="m236.0625 479.316406c-4.199219 17.390625-23.386719 32.683594-49.773438 32.683594-10.792968 0-21.285156-3-30.28125-8.394531-5.695312-3.597657-12.890624-5.398438-20.085937-5.398438v-137.417969c29.980469 0 56.667969 23.1875 64.761719 55.265626 2.398437 8.394531 8.695312 16.492187 19.488281 24.289062 13.191406 9.59375 19.488281 24.582031 15.890625 38.972656zm0 0" fill="#53433f"/><path d="m476.921875 223.46875c-4.199219 17.390625-24.386719 32.679688-50.773437 32.679688-10.792969 0-21.285157-2.996094-30.28125-8.394532-5.695313-3.597656-12.890626-5.398437-20.085938-5.398437v-137.417969c29.980469 0 56.667969 22.1875 64.761719 54.269531 2.398437 8.394531 9.695312 17.488281 20.488281 25.285157 13.191406 9.59375 19.488281 24.585937 15.890625 38.976562zm0 0" fill="#53433f"/></svg>