<svg height="512pt" viewBox="0 0 512 512" width="512pt" xmlns="http://www.w3.org/2000/svg"><path d="m510.023438 198.398438c-5.398438-17.097657-20.398438-28.199219-38.398438-28.199219h-83.21875s0 0-.296875 0c-18 0-34.199219-10.5-41.398437-27.300781l-48.902344-115.296876c-7.199219-17.101562-23.101563-27.601562-41.398438-27.601562-.300781 0-.300781 0-.601562 0-18 .300781-33.601563 10.800781-40.800782 27.601562l-48.898437 115.296876c-7.203125 16.800781-23.402344 27.300781-41.402344 27.300781h-83.800781c-18.296875 0-33.597656 11.398437-39 28.800781-5.398438 17.398438.902344 35.398438 15.902344 45.898438l71.800781 48.601562c15.597656 10.5 22.796875 30 17.996094 48.300781l-29.398438 113.5c-5.097656 18.300781 1.800781 37.199219 17.402344 48.300781 15.597656 10.796876 35.699219 11.097657 51.300781.296876l84.296875-57.296876c7.5-5.402343 16.199219-7.800781 24.601563-7.800781 9-.300781 18 2.402344 25.800781 7.800781l85.800781 57.601563c7.796875 5.398437 16.5 7.796875 25.199219 7.796875 9 0 18-2.699219 25.800781-8.097656 15.300782-10.800782 22.5-29.402344 18-47.703125l-29.101562-117.699219c-4.496094-18.300781 2.703125-37.800781 18.300781-48.300781l68.515625-46.800781c15-10.199219 21-27.898438 15.898438-45zm0 0" fill="#ff6c6c"/><path d="m494.125 243.398438-68.515625 46.800781c-15.601563 10.5-22.800781 30-18.300781 48.300781l29.101562 117.699219c4.496094 18.300781-2.703125 36.902343-18.003906 47.703125-7.796875 5.398437-16.796875 8.097656-25.796875 8.097656-8.699219 0-17.402344-2.398438-25.203125-7.796875l-85.800781-57.601563c-7.796875-5.402343-16.796875-8.101562-25.796875-7.800781v-438.800781h.597656c18.300781 0 34.199219 10.5 41.402344 27.601562l48.898437 115.296876c7.199219 16.800781 23.398438 27.300781 41.398438 27.300781h.300781 83.214844c18 0 33 11.101562 38.402344 28.199219 5.101562 17.101562-.898438 34.800781-15.898438 45zm0 0" fill="#ff4949"/><g fill="#fdbf00"><path d="m270.808594 106v120c0 8.398438-6.597656 15-15 15s-15-6.601562-15-15v-120c0-8.402344 6.597656-15 15-15s15 6.597656 15 15zm0 0"/><path d="m156.816406 417.996094c-6.636718-4.964844-7.984375-14.367188-3.003906-20.988282l53.992188-72c4.980468-6.636718 14.386718-7.953124 20.992187-3 6.636719 4.964844 7.984375 14.367188 3.003906 20.988282l-53.996093 71.996094c-4.945313 6.625-14.347657 7.988281-20.988282 3.003906zm0 0"/><path d="m194.328125 279.085938-90.015625-33.574219c-7.761719-2.886719-11.703125-11.527344-8.800781-19.292969 2.882812-7.746094 11.554687-11.660156 19.289062-8.804688l90.015625 33.574219c7.765625 2.886719 11.703125 11.53125 8.804688 19.292969-2.878906 7.75-11.515625 11.703125-19.292969 8.804688zm0 0"/></g><path d="m333.8125 414.992188-53.996094-71.996094c-4.976562-6.621094-3.632812-16.023438 3.003906-20.988282 6.59375-4.996093 16.039063-3.648437 20.992188 3l53.992188 72c4.980468 6.621094 3.632812 16.023438-3 20.988282-6.640626 4.980468-16.042969 3.625-20.992188-3.003906zm0 0" fill="#ff9f00"/><path d="m297.921875 270.09375c-2.929687-7.75.980469-16.40625 8.730469-19.335938l88.230468-33.328124c7.761719-2.929688 16.417969.980468 19.335938 8.730468 2.929688 7.75-.984375 16.40625-8.730469 19.335938l-88.230469 33.324218c-7.636718 2.890626-16.367187-.882812-19.335937-8.726562zm0 0" fill="#ff9f00"/><path d="m270.808594 106v120c0 8.398438-6.597656 15-15 15v-150c8.402344 0 15 6.597656 15 15zm0 0" fill="#ff9f00"/><path d="m255.808594 211c-41.398438 0-75 33.601562-75 75s33.601562 75 75 75c41.398437 0 75-33.601562 75-75s-33.601563-75-75-75zm0 0" fill="#fdbf00"/><path d="m330.808594 286c0 41.398438-33.601563 75-75 75v-150c41.398437 0 75 33.601562 75 75zm0 0" fill="#ff9f00"/><path d="m270.808594 286c0 8.398438-6.597656 15-15 15s-15-6.601562-15-15c0-8.402344 6.597656-15 15-15s15 6.597656 15 15zm0 0" fill="#ffd400"/><path d="m270.808594 286c0 8.398438-6.597656 15-15 15v-30c8.402344 0 15 6.597656 15 15zm0 0" fill="#fdbf00"/></svg>