<svg height="512pt" viewBox="-61 0 512 512" width="512pt" xmlns="http://www.w3.org/2000/svg"><path d="m149.53125 389.636719c-.453125-8.273438-7.882812-14.984375-15.804688-14.132813l-58.726562 15.496094c-8.289062 0-15 6.710938-15 15 0 52.265625 13.914062 106 45 106 5.304688 0 13.226562-1.699219 20.875-9.785156 16.875-17.84375 26.382812-63.679688 23.65625-112.578125zm0 0" fill="#ede9e8"/><path d="m315 391-58.726562-15.496094c-8.4375-.941406-15.351563 5.855469-15.804688 14.132813-2.726562 48.898437 6.78125 94.734375 23.65625 112.578125 7.648438 8.085937 15.570312 9.785156 20.875 9.785156 31.085938 0 45-53.734375 45-106 0-8.289062-6.710938-15-15-15zm0 0" fill="#dfd7d5"/><path d="m390 241c0 20.097656-2.699219 39-7.800781 56.699219-2.097657 6.300781-7.800781 10.800781-14.398438 10.800781-1.5 0-2.699219-.300781-4.199219-.902344h-337.203124c-7.796876 2.703125-16.199219-2.097656-18.597657-9.898437-5.101562-17.699219-7.800781-36.601563-7.800781-56.699219 0-113.402344 83.402344-241 195-241s195 127.597656 195 241zm0 0" fill="#c6715a"/><path d="m267.898438 410.199219c-22.5 7.199219-47.097657 10.800781-72.898438 10.800781s-50.398438-3.601562-72.898438-10.800781l9-88.5c19.5 6.300781 41.699219 9.300781 63.898438 9.300781s44.398438-3 63.898438-9.300781zm0 0" fill="#c6715a"/><path d="m258.898438 321.699219 9 88.5c-22.5 7.199219-47.097657 10.800781-72.898438 10.800781v-90c22.199219 0 44.398438-3 63.898438-9.300781zm0 0" fill="#99503d"/><path d="m390 241c0 20.097656-2.699219 39-7.800781 56.699219-2.097657 6.300781-7.800781 10.800781-14.398438 10.800781-1.5 0-2.699219-.300781-4.199219-.902344h-168.601562v-307.597656c111.597656 0 195 127.597656 195 241zm0 0" fill="#99503d"/><path d="m269.097656 211h-148.195312c-66.601563 0-120.902344 54.300781-120.902344 120.898438 0 49.199218 39.902344 89.101562 89.097656 89.101562 34.203125 0 64.503906-18.898438 79.800782-49.199219 3.300781-6.601562 9.902343-10.800781 17.402343-10.800781h17.398438c7.5 0 14.101562 4.199219 17.402343 10.800781 15.300782 30.300781 45.601563 49.199219 79.800782 49.199219 49.195312 0 89.097656-39.902344 89.097656-89.101562 0-66.597657-54.300781-120.898438-120.902344-120.898438zm0 0" fill="#b35f49"/><path d="m390 331.898438c0 49.199218-39.902344 89.101562-89.097656 89.101562-34.203125 0-64.503906-18.898438-79.800782-49.199219-3.300781-6.601562-9.902343-10.800781-17.402343-10.800781h-8.699219v-150h74.097656c66.601563 0 120.902344 54.300781 120.902344 120.898438zm0 0" fill="#804231"/><path d="m300 286c0 8.285156-6.714844 15-15 15s-15-6.714844-15-15 6.714844-15 15-15 15 6.714844 15 15zm0 0" fill="#3e322e"/><path d="m330 346c0 8.285156-6.714844 15-15 15s-15-6.714844-15-15 6.714844-15 15-15 15 6.714844 15 15zm0 0" fill="#3e322e"/><g fill="#68544f"><path d="m90 346c0 8.285156-6.714844 15-15 15s-15-6.714844-15-15 6.714844-15 15-15 15 6.714844 15 15zm0 0"/><path d="m120 286c0 8.285156-6.714844 15-15 15s-15-6.714844-15-15 6.714844-15 15-15 15 6.714844 15 15zm0 0"/><path d="m210 301v45c0 8.398438-6.597656 15-15 15s-15-6.601562-15-15v-45c0-8.402344 6.597656-15 15-15s15 6.597656 15 15zm0 0"/><path d="m120 166c0 8.285156-6.714844 15-15 15s-15-6.714844-15-15 6.714844-15 15-15 15 6.714844 15 15zm0 0"/></g><path d="m300 166c0 8.285156-6.714844 15-15 15s-15-6.714844-15-15 6.714844-15 15-15 15 6.714844 15 15zm0 0" fill="#3e322e"/><path d="m195 241c-26.101562 0-45 12.597656-45 30 0 15.300781 18.898438 45 45 45s45-29.699219 45-45c0-17.402344-18.898438-30-45-30zm0 0" fill="#68544f"/><path d="m240 271c0 15.300781-18.898438 45-45 45v-75c26.101562 0 45 12.597656 45 30zm0 0" fill="#3e322e"/><path d="m210 301v45c0 8.398438-6.597656 15-15 15v-75c8.402344 0 15 6.597656 15 15zm0 0" fill="#3e322e"/></svg>