<svg height="511pt" viewBox="-15 0 511 511.99962" width="511pt" xmlns="http://www.w3.org/2000/svg"><path d="m195.523438 209.960938c-2.695313 0-5.390626-.71875-7.808594-2.195313l-158.414063-96.5625c-18.03125-10.988281-28.800781-30.148437-28.800781-51.261719 0-26.664062 17.886719-50.398437 43.511719-57.707031 25.359375-7.28125 53.855469 3.664063 67.757812 26.503906l96.558594 158.414063c3.605469 5.902344 2.695313 13.523437-2.195313 18.414062-2.886718 2.902344-6.738281 4.394532-10.609374 4.394532zm0 0" fill="#53433f"/><path d="m52.273438 31.082031c-.015626 0-.015626.011719-.027344.011719-12.804688 3.648438-21.742188 15.515625-21.742188 28.847656 0 10.5625 5.390625 20.144532 14.414063 25.652344l105.617187 64.375-64.375-105.613281c-7.34375-12.035157-21.445312-16.867188-33.886718-13.273438zm0 0" fill="#fed2a4"/><path d="m285.535156 209.960938c-3.867187 0-7.71875-1.492188-10.605468-4.394532-4.894532-4.894531-5.800782-12.496094-2.199219-18.417968l96.5625-158.414063c17.433593-28.640625 58.351562-37.152344 85.734375-17.914063.015625 0 .015625 0 .015625.015626 15.980469 11.234374 25.519531 29.59375 25.519531 49.105468 0 21.113282-10.769531 40.273438-28.800781 51.261719l-158.414063 96.5625c-2.421875 1.476563-5.128906 2.195313-7.8125 2.195313zm0 0" fill="#3e322e"/><path d="m394.902344 44.355469-64.375 105.613281 105.613281-64.375c9.027344-5.507812 14.417969-15.089844 14.417969-25.652344 0-9.753906-4.777344-18.941406-12.773438-24.582031-13.917968-9.734375-33.636718-6.15625-42.882812 8.996094zm0 0" fill="#ffbd86"/><path d="m390.550781 436.988281c0 41.40625-33.605469 75.011719-75.011719 75.011719h-150.019531c-41.402343 0-75.007812-33.605469-75.007812-75.011719 0-8.398437 6.597656-15 15-15h270.035156c8.402344 0 15.003906 6.601563 15.003906 15zm0 0" fill="#68544f"/><path d="m390.550781 436.988281c0 41.40625-33.605469 75.011719-75.011719 75.011719h-75.007812v-90.011719h135.015625c8.402344 0 15.003906 6.601563 15.003906 15zm0 0" fill="#53433f"/><path d="m420.554688 164.957031v99.109375c0 8.101563-6.601563 15.003906-15.003907 15.003906h-330.042969c-8.402343 0-15-6.902343-15-15.003906v-99.109375c0-74.410156 60.609376-135.019531 135.015626-135.019531h90.011718c74.410156 0 135.019532 60.609375 135.019532 135.019531zm0 0" fill="#68544f"/><path d="m420.554688 164.957031v99.109375c0 8.101563-6.601563 15.003906-15.003907 15.003906h-165.019531v-249.132812h45.003906c74.410156 0 135.019532 60.609375 135.019532 135.019531zm0 0" fill="#53433f"/><path d="m330.542969 164.957031c0 8.285157-6.71875 15-15.003907 15-8.285156 0-15-6.714843-15-15 0-8.285156 6.714844-15.003906 15-15.003906 8.285157 0 15.003907 6.71875 15.003907 15.003906zm0 0" fill="#3e322e"/><path d="m180.523438 164.957031c0 8.285157-6.71875 15-15.003907 15-8.285156 0-15-6.714843-15-15 0-8.285156 6.714844-15.003906 15-15.003906 8.285157 0 15.003907 6.71875 15.003907 15.003906zm0 0" fill="#53433f"/><path d="m345.542969 209.960938h-210.027344c-57.90625 0-105.011719 48.105468-105.011719 106.015624v60.003907c0 41.40625 33.605469 76.011719 75.007813 76.011719h270.035156c41.40625 0 75.011719-34.605469 75.011719-76.011719v-60.003907c0-57.910156-47.109375-106.015624-105.015625-106.015624zm0 0" fill="#725d57"/><path d="m450.558594 315.976562v60.003907c0 41.40625-33.605469 76.011719-75.011719 76.011719h-135.015625v-242.03125h105.011719c57.90625 0 105.015625 48.105468 105.015625 106.015624zm0 0" fill="#68544f"/><path d="m150.519531 375.980469c-24.816406 0-45.007812-20.1875-45.007812-45.003907 0-24.816406 20.191406-45.003906 45.007812-45.003906 24.816407 0 45.003907 20.1875 45.003907 45.003906 0 24.816407-20.1875 45.003907-45.003907 45.003907zm0 0" fill="#53433f"/><path d="m330.542969 375.980469c-24.820313 0-45.007813-20.1875-45.007813-45.003907 0-24.816406 20.1875-45.003906 45.007813-45.003906 24.816406 0 45.003906 20.1875 45.003906 45.003906 0 24.816407-20.1875 45.003907-45.003906 45.003907zm0 0" fill="#3e322e"/></svg>