<svg height="512pt" viewBox="0 0 512 512" width="512pt" xmlns="http://www.w3.org/2000/svg"><path d="m511.160156 422-30 15 30 15c0 33-27 60-60 60h-272c-66.300781 0-120-53.699219-120-120v-90c-28.5 0-53.402344-20.398438-58.800781-48.300781-1.5-6.601563 1.800781-13.199219 8.101563-16.199219l12.898437-6.601562c21.898437-11.097657 50.097656-6.300782 67.800781 11.101562 17.402344-17.402344 45.902344-22.199219 68.101563-11.101562l12.597656 6.601562c6.300781 3 9.601563 9.597656 8.101563 16.199219-5.398438 27.902343-30.300782 48.300781-58.800782 48.300781v51c0 21.597656 17.402344 39 39 39 13.199219 0 25.199219-6.601562 32.699219-17.402344l31.601563-45.898437c11.101562-16.800781 29.699218-26.699219 49.800781-26.699219h178.898437c33 0 60 27 60 60zm0 0" fill="#73bcff"/><path d="m511.160156 422-30 15 30 15c0 33-27 60-60 60h-76v-210h76c33 0 60 27 60 60zm0 0" fill="#3aaaff"/><path d="m511.160156 422v30h-166c-8.402344 0-15-6.601562-15-15 0-8.402344 6.597656-15 15-15zm0 0" fill="#76e2f8"/><path d="m405.160156 242c-8.292968 0-15-6.710938-15-15v-122c0-24.8125 20.1875-45 45-45s45 20.1875 45 45c0 8.289062-6.710937 15-15 15-8.292968 0-15-6.710938-15-15 0-8.277344-6.722656-15-15-15s-15 6.722656-15 15v122c0 8.289062-6.710937 15-15 15zm0 0" fill="#25d9f8"/><g fill="#76e2f8"><path d="m345.160156 242c-8.292968 0-15-6.710938-15-15v-92c0-8.277344-6.722656-15-15-15s-15 6.722656-15 15c0 8.289062-6.710937 15-15 15-8.292968 0-15-6.710938-15-15 0-24.8125 20.1875-45 45-45s45 20.1875 45 45v92c0 8.289062-6.710937 15-15 15zm0 0"/><path d="m390.160156 15v30c0 8.398438-6.597656 15-15 15s-15-6.601562-15-15v-30c0-8.402344 6.597656-15 15-15s15 6.597656 15 15zm0 0"/><path d="m360.160156 377c0 8.285156-6.714844 15-15 15s-15-6.714844-15-15 6.714844-15 15-15 15 6.714844 15 15zm0 0"/></g><path d="m375.160156 60v-60c8.402344 0 15 6.597656 15 15v30c0 8.398438-6.597656 15-15 15zm0 0" fill="#25d9f8"/><path d="m375.160156 422h136v30h-136zm0 0" fill="#25d9f8"/></svg>